<?xml version="1.0" encoding="UTF-8" standalone="no"?>
<svg
   xmlns:dc="http://purl.org/dc/elements/1.1/"
   xmlns:cc="http://creativecommons.org/ns#"
   xmlns:rdf="http://www.w3.org/1999/02/22-rdf-syntax-ns#"
   xmlns:svg="http://www.w3.org/2000/svg"
   xmlns="http://www.w3.org/2000/svg"
   xmlns:sodipodi="http://sodipodi.sourceforge.net/DTD/sodipodi-0.dtd"
   xmlns:inkscape="http://www.inkscape.org/namespaces/inkscape"
   version="1.1"
   viewBox="0 -250 239 1000"
   id="svg6"
   sodipodi:docname="colon-MNF_Path.svg"
   inkscape:version="0.92.5 (2060ec1f9f, 2020-04-08)">
  <metadata
     id="metadata12">
    <rdf:RDF>
      <cc:Work
         rdf:about="">
        <dc:format>image/svg+xml</dc:format>
        <dc:type
           rdf:resource="http://purl.org/dc/dcmitype/StillImage" />
        <dc:title />
      </cc:Work>
    </rdf:RDF>
  </metadata>
  <defs
     id="defs10" />
  <sodipodi:namedview
     pagecolor="#ffffff"
     bordercolor="#666666"
     borderopacity="1"
     objecttolerance="10"
     gridtolerance="10"
     guidetolerance="10"
     inkscape:pageopacity="0"
     inkscape:pageshadow="2"
     inkscape:window-width="1920"
     inkscape:window-height="1016"
     id="namedview8"
     showgrid="false"
     inkscape:snap-intersection-paths="false"
     inkscape:snap-midpoints="true"
     inkscape:zoom="0.944"
     inkscape:cx="-22.848753"
     inkscape:cy="207.78852"
     inkscape:window-x="0"
     inkscape:window-y="0"
     inkscape:window-maximized="1"
     inkscape:current-layer="layer1" />
  <g
     inkscape:groupmode="layer"
     id="layer1"
     inkscape:label="base"
     sodipodi:insensitive="true"
     style="display:inline">
    <g
       transform="matrix(1,0,0,-1,0,750)"
       id="g4">
      <path
         style="fill:currentColor"
         inkscape:connector-curvature="0"
         d="m 139.141,333.1 -46.2305,9.8e-4 -32.8525,35.7451 0.02246,50.8037 32.2793,36.3506 46.2305,-9.8e-4 33.1602,-36.4492 -0.0801,-50.8496 z m 0,-265.0004 -46.2305,9.77e-4 -32.8525,35.745103 0.02246,50.8037 32.2793,36.3506 46.2305,-9.8e-4 33.1602,-36.4492 -0.0801,-50.8496 z"
         id="path2" />
    </g>
  </g>
  <g
     inkscape:groupmode="layer"
     id="layer2"
     inkscape:label="skeleton"
     sodipodi:insensitive="true"
     style="display:none">
    <path
       style="fill:none;stroke:#000000;stroke-width:1px;stroke-linecap:butt;stroke-linejoin:miter;stroke-opacity:1"
       d="M 60.08046,330.35022 115.75038,355.44981 60.058,381.15392"
       id="path850"
       inkscape:connector-curvature="0" />
    <path
       style="fill:none;stroke:#000000;stroke-width:1px;stroke-linecap:butt;stroke-linejoin:miter;stroke-opacity:1"
       d="m 171.75046,330.4498 -56.00008,25.00001 55.91998,25.84959"
       id="path852"
       inkscape:connector-curvature="0" />
    <path
       style="fill:none;stroke:#000000;stroke-width:1px;stroke-linecap:butt;stroke-linejoin:miter;stroke-opacity:1"
       d="M 60.08046,595.35062 115.75038,620.45021 60.058,646.15432"
       id="path854"
       inkscape:connector-curvature="0" />
    <path
       style="fill:none;stroke:#000000;stroke-width:1px;stroke-linecap:butt;stroke-linejoin:miter;stroke-opacity:1"
       d="m 171.75046,595.4502 -56.00008,25.00001 55.91998,25.84959"
       id="path856"
       inkscape:connector-curvature="0" />
    <path
       style="fill:none;stroke:#000000;stroke-width:1px;stroke-linecap:butt;stroke-linejoin:miter;stroke-opacity:1"
       d="m 92.35976,293.99962 23.39062,61.45019 22.83988,-61.44921"
       id="path858"
       inkscape:connector-curvature="0" />
    <path
       style="fill:none;stroke:#000000;stroke-width:1px;stroke-linecap:butt;stroke-linejoin:miter;stroke-opacity:1"
       d="M 92.9105,416.89902 115.75038,355.44981 139.141,416.9"
       id="path860"
       inkscape:connector-curvature="0" />
    <path
       style="fill:none;stroke:#000000;stroke-width:1px;stroke-linecap:butt;stroke-linejoin:miter;stroke-opacity:1"
       d="m 92.35976,559.00002 23.39062,61.45019 22.83988,-61.44921"
       id="path862"
       inkscape:connector-curvature="0" />
    <path
       style="fill:none;stroke:#000000;stroke-width:1px;stroke-linecap:butt;stroke-linejoin:miter;stroke-opacity:1"
       d="M 92.9105,681.89942 115.75038,620.45021 139.141,681.9004"
       id="path864"
       inkscape:connector-curvature="0"
       sodipodi:nodetypes="ccc" />
  </g>
  <g
     inkscape:groupmode="layer"
     id="layer3"
     inkscape:label="structure"
     style="display:inline"
     sodipodi:insensitive="true">
    <path
       style="opacity:0.5;fill:none;fill-opacity:1;stroke:#ff0000;stroke-width:18.89763832;stroke-linecap:butt;stroke-linejoin:miter;stroke-miterlimit:4;stroke-dasharray:none;stroke-opacity:1"
       d="m 87.90419,633.30227 0.01123,-25.40185 16.13965,-18.17531 23.11525,4.9e-4 16.5801,18.2246 -0.04,25.4248 -16.26468,17.8003 -23.11525,-4.9e-4 z"
       id="path867"
       inkscape:connector-curvature="0" />
    <path
       style="opacity:0.5;fill:none;fill-opacity:1;stroke:#ff0000;stroke-width:18.89763832;stroke-linecap:butt;stroke-linejoin:miter;stroke-miterlimit:4;stroke-dasharray:none;stroke-opacity:1"
       d="m 104.33044,386.17441 23.11525,4.9e-4 16.26468,-17.8003 0.04,-25.4248 -16.5801,-18.2246 -23.11525,-4.8e-4 -16.13965,18.17529 -0.01123,25.40186 z"
       id="path869"
       inkscape:connector-curvature="0" />
  </g>
  <g
     inkscape:groupmode="layer"
     id="layer4"
     inkscape:label="optique"
     sodipodi:insensitive="true">
    <path
       style="display:inline;opacity:0.5;fill:none;fill-opacity:1;stroke:#ff0000;stroke-width:71.8110199;stroke-linecap:butt;stroke-linejoin:miter;stroke-miterlimit:4;stroke-dasharray:none;stroke-opacity:1"
       d="m 87.90419,633.30227 0.01123,-25.40185 16.13965,-18.17531 23.11525,4.9e-4 16.5801,18.2246 -0.04,25.4248 -16.26468,17.8003 -23.11525,-4.9e-4 z"
       id="path867-3"
       inkscape:connector-curvature="0" />
    <path
       style="display:inline;opacity:0.5;fill:none;fill-opacity:1;stroke:#ff0000;stroke-width:71.8110199;stroke-linecap:butt;stroke-linejoin:miter;stroke-miterlimit:4;stroke-dasharray:none;stroke-opacity:1"
       d="m 104.33044,386.17441 23.11525,4.9e-4 16.26468,-17.8003 0.04,-25.4248 -16.5801,-18.2246 -23.11525,-4.8e-4 -16.13965,18.17529 -0.01123,25.40186 z"
       id="path869-6"
       inkscape:connector-curvature="0" />
  </g>
</svg>
