<?xml version="1.0" encoding="UTF-8" standalone="no"?>
<svg
   xmlns:dc="http://purl.org/dc/elements/1.1/"
   xmlns:cc="http://creativecommons.org/ns#"
   xmlns:rdf="http://www.w3.org/1999/02/22-rdf-syntax-ns#"
   xmlns:svg="http://www.w3.org/2000/svg"
   xmlns="http://www.w3.org/2000/svg"
   xmlns:sodipodi="http://sodipodi.sourceforge.net/DTD/sodipodi-0.dtd"
   xmlns:inkscape="http://www.inkscape.org/namespaces/inkscape"
   version="1.1"
   viewBox="0 -250 556 1000"
   id="svg6"
   sodipodi:docname="questiondown-MNF_Path.svg"
   inkscape:version="0.92.5 (2060ec1f9f, 2020-04-08)">
  <metadata
     id="metadata12">
    <rdf:RDF>
      <cc:Work
         rdf:about="">
        <dc:format>image/svg+xml</dc:format>
        <dc:type
           rdf:resource="http://purl.org/dc/dcmitype/StillImage" />
      </cc:Work>
    </rdf:RDF>
  </metadata>
  <defs
     id="defs10" />
  <sodipodi:namedview
     pagecolor="#ffffff"
     bordercolor="#666666"
     borderopacity="1"
     objecttolerance="10"
     gridtolerance="10"
     guidetolerance="10"
     inkscape:pageopacity="0"
     inkscape:pageshadow="2"
     inkscape:window-width="1920"
     inkscape:window-height="1016"
     id="namedview8"
     showgrid="false"
     inkscape:snap-object-midpoints="true"
     inkscape:snap-midpoints="true"
     inkscape:snap-others="false"
     inkscape:zoom="0.472"
     inkscape:cx="105.98626"
     inkscape:cy="310.52164"
     inkscape:window-x="0"
     inkscape:window-y="0"
     inkscape:window-maximized="1"
     inkscape:current-layer="layer1" />
  <g
     inkscape:groupmode="layer"
     id="layer1"
     inkscape:label="base"
     sodipodi:insensitive="true"
     style="display:inline">
    <g
       transform="matrix(1,0,0,-1,0,750)"
       id="g4">
      <path
         style="fill:currentColor"
         inkscape:connector-curvature="0"
         d="m 298,408 -46.2305,9.8e-4 -32.8525,35.7451 0.0225,50.8037 32.2793,36.3506 46.2305,-9.8e-4 33.1602,-36.4492 -0.0801,-50.8496 z m 22.258,-60.195 v -27.4707 l -21.1768,-108.105 -71.6963,-80.6172 -60.1084,-59.0586 -26.5566,-82.7188 40.7607,-101.216 95.7432,-29.334 91.2998,34.8193 45.373,108.998 78.1035,-31.1016 -60.8701,-137.218 -153.056,-57.1455 -170.002,55.9971 -64.5635,150.077 40.4629,119.962 87.0254,83.9854 48.6914,59.7891 13.4795,72.8018 v 27.5557 h 87.0898 z"
         id="path2" />
    </g>
  </g>
  <g
     inkscape:groupmode="layer"
     id="layer2"
     inkscape:label="skeleton"
     sodipodi:insensitive="true"
     style="display:none">
    <path
       style="fill:none;stroke:#000000;stroke-width:1px;stroke-linecap:butt;stroke-linejoin:miter;stroke-opacity:1"
       d="m 297.4493,219.1006 -22.71485,61.82421"
       id="path844"
       inkscape:connector-curvature="0" />
  </g>
  <g
     inkscape:groupmode="layer"
     id="layer3"
     inkscape:label="structure"
     sodipodi:insensitive="true">
    <path
       style="display:inline;opacity:0.5;fill:none;stroke:#ff0606;stroke-width:18.89763832;stroke-linecap:square;stroke-linejoin:round;stroke-miterlimit:4;stroke-dasharray:none;stroke-opacity:1"
       d="M 277.69148,936.6573 401.8829,889.7764 437.72464,799.5645 397.52548,885.6514 277.62899,930.6573 147.06063,889.21581 94.994218,765.20022 128.31258,665.09476 l 72.88281,-70.4043 60.8418,-71.1582 14.56054,-83.13686 -20.04492,80.70131 -59.5996,69.34961 -74.25977,72.54687 -33.687502,102.58399 53.253912,127.23433 z m -16.4961,-625.1954 25.19532,-0.125 17.72851,-18.05079 -0.12304,-25.40031 -17.9043,-17.8731 -25.19727,0.125 -17.72656,18.0488 0.12305,25.4024 z"
       id="path831"
       inkscape:connector-curvature="0"
       sodipodi:nodetypes="cccccccccccccccccccccccccc" />
  </g>
  <g
     inkscape:groupmode="layer"
     id="layer4"
     inkscape:label="optique"
     sodipodi:insensitive="true">
    <path
       inkscape:connector-curvature="0"
       style="display:inline;opacity:0.5;fill:none;stroke:#ff0606;stroke-width:71.8110199;stroke-linecap:square;stroke-linejoin:round;stroke-miterlimit:4;stroke-dasharray:none;stroke-opacity:1"
       d="m 277.69149,936.65725 124.1914,-46.88086 35.84175,-90.21184 -40.19917,86.08684 -119.89648,45.00586 -130.56836,-41.44141 -52.06641,-124.01562 33.31836,-100.10546 72.88281,-70.4043 60.8418,-71.1582 14.56055,-83.13686 -20.04492,80.70131 -59.59961,69.34961 -74.25977,72.54687 -33.6875,102.58399 53.25391,127.23436 z m -16.4961,-625.19531 25.19532,-0.125 17.72851,-18.05078 -0.12304,-25.40039 -17.9043,-17.87305 -25.19727,0.125 -17.72656,18.04883 0.12305,25.40235 z"
       id="path831-2"
       sodipodi:nodetypes="cccccccccccccccccccccccccc" />
  </g>
</svg>
