<?xml version="1.0" encoding="UTF-8" standalone="no"?>
<svg
   xmlns:dc="http://purl.org/dc/elements/1.1/"
   xmlns:cc="http://creativecommons.org/ns#"
   xmlns:rdf="http://www.w3.org/1999/02/22-rdf-syntax-ns#"
   xmlns:svg="http://www.w3.org/2000/svg"
   xmlns="http://www.w3.org/2000/svg"
   xmlns:sodipodi="http://sodipodi.sourceforge.net/DTD/sodipodi-0.dtd"
   xmlns:inkscape="http://www.inkscape.org/namespaces/inkscape"
   inkscape:version="0.92.3 (2405546, 2018-03-11)"
   sodipodi:docname="semicolon_ManifontGroteskBook-travail.svg"
   id="svg6"
   viewBox="0 -250 231 1000"
   version="1.1">
  <sodipodi:namedview
     inkscape:snap-object-midpoints="true"
     inkscape:current-layer="layer5"
     inkscape:window-maximized="1"
     inkscape:window-y="0"
     inkscape:window-x="0"
     inkscape:cy="280.46069"
     inkscape:cx="99.693394"
     inkscape:zoom="0.70710678"
     inkscape:object-paths="false"
     inkscape:snap-midpoints="true"
     inkscape:snap-intersection-paths="true"
     showgrid="false"
     id="namedview8"
     inkscape:window-height="1015"
     inkscape:window-width="1920"
     inkscape:pageshadow="2"
     inkscape:pageopacity="0"
     guidetolerance="10"
     gridtolerance="10"
     objecttolerance="10"
     borderopacity="1"
     bordercolor="#666666"
     pagecolor="#ffffff" />
  <metadata
     id="metadata12">
    <rdf:RDF>
      <cc:Work
         rdf:about="">
        <dc:format>image/svg+xml</dc:format>
        <dc:type
           rdf:resource="http://purl.org/dc/dcmitype/StillImage" />
        <dc:title />
      </cc:Work>
    </rdf:RDF>
  </metadata>
  <defs
     id="defs10">
    <inkscape:perspective
       sodipodi:type="inkscape:persp3d"
       inkscape:vp_x="0 : 500 : 1"
       inkscape:vp_y="0 : 1000 : 0"
       inkscape:vp_z="231 : 500 : 1"
       inkscape:persp3d-origin="115.5 : 333.33333 : 1"
       id="perspective896" />
  </defs>
  <g
     inkscape:groupmode="layer"
     id="layer1"
     inkscape:label="Layer 1"
     sodipodi:insensitive="true"
     style="display:none">
    <g
       transform="matrix(1,0,0,-1,0,750)"
       id="g4">
      <path
         style="fill:currentColor"
         inkscape:connector-curvature="0"
         d="M 120.496,-0.974609 H 98.2206 l -29.8604,29.8691 v 42.2461 l 29.8652,29.859399 v 0.002 h 42.248 L 170.3338,71.136744 V 28.890644 -0.97265588 L 149.5516,-91.379856 89.9998,-143.41796 l -27.6777,36.3896 42.4834,34.275404 z M 139.141,333.1 l -46.2305,9.8e-4 -32.8525,35.7451 0.02246,50.8037 32.2793,36.3506 46.2305,-9.8e-4 33.1602,-36.4492 -0.0801,-50.8496 z"
         id="path2" />
    </g>
  </g>
  <g
     inkscape:groupmode="layer"
     id="layer2"
     inkscape:label="Layer 2"
     sodipodi:insensitive="true"
     style="display:none">
    <path
       style="fill:none;stroke:#000000;stroke-width:1px;stroke-linecap:butt;stroke-linejoin:miter;stroke-opacity:1"
       d="M 60.058,381.15392 115.75038,355.44981 60.08046,330.35022"
       id="path846"
       inkscape:connector-curvature="0" />
    <path
       style="fill:none;stroke:#000000;stroke-width:1px;stroke-linecap:butt;stroke-linejoin:miter;stroke-opacity:1"
       d="M 171.67036,381.2994 115.75038,355.44981 171.75046,330.4498"
       id="path848"
       inkscape:connector-curvature="0" />
    <path
       style="fill:none;stroke:#000000;stroke-width:1px;stroke-linecap:butt;stroke-linejoin:miter;stroke-opacity:1"
       d="m 92.35976,293.99962 23.39062,61.45019 22.83988,-61.44921"
       id="path850"
       inkscape:connector-curvature="0" />
    <path
       style="fill:none;stroke:#000000;stroke-width:1px;stroke-linecap:butt;stroke-linejoin:miter;stroke-opacity:1"
       d="M 139.141,416.9 115.75038,355.44981 92.9105,416.89902"
       id="path852"
       inkscape:connector-curvature="0" />
    <path
       style="fill:none;stroke:#000000;stroke-width:1px;stroke-linecap:butt;stroke-linejoin:miter;stroke-opacity:1"
       d="m 104.8055,822.753 44.7461,18.6269"
       id="path854"
       inkscape:connector-curvature="0" />
    <path
       style="fill:none;stroke:#000000;stroke-width:1px;stroke-linecap:butt;stroke-linejoin:miter;stroke-opacity:1"
       d="m 120.496,750.9746 h 49.8378"
       id="path856"
       inkscape:connector-curvature="0" />
    <path
       style="fill:none;stroke:#000000;stroke-width:1px;stroke-linecap:butt;stroke-linejoin:miter;stroke-opacity:1"
       d="M 98.2254,649.00001 119.34796,699.98399 68.3602,678.85941"
       id="path862"
       inkscape:connector-curvature="0" />
    <path
       style="fill:none;stroke:#000000;stroke-width:1px;stroke-linecap:butt;stroke-linejoin:miter;stroke-opacity:1"
       d="M 98.2206,750.9746 119.34796,699.98399 68.3602,721.10551"
       id="path864"
       inkscape:connector-curvature="0" />
    <path
       style="fill:none;stroke:#000000;stroke-width:1px;stroke-linecap:butt;stroke-linejoin:miter;stroke-opacity:1"
       d="M 119.34796,699.98399 140.4734,648.99801"
       id="path866"
       inkscape:connector-curvature="0" />
    <path
       style="fill:none;stroke:#000000;stroke-width:1px;stroke-linecap:butt;stroke-linejoin:miter;stroke-opacity:1"
       d="M 119.34796,699.98399 170.3338,678.86326"
       id="path868"
       inkscape:connector-curvature="0" />
    <path
       style="fill:none;stroke:#000000;stroke-width:1px;stroke-linecap:butt;stroke-linejoin:miter;stroke-opacity:1"
       d="M 119.34796,699.98399 170.3338,750.9727"
       id="path870"
       inkscape:connector-curvature="0" />
  </g>
  <g
     inkscape:groupmode="layer"
     id="layer3"
     inkscape:label="Layer 3"
     style="display:none"
     sodipodi:insensitive="true">
    <path
       style="fill:#000000;fill-opacity:1;stroke:none;stroke-width:1px;stroke-linecap:butt;stroke-linejoin:miter;stroke-opacity:1"
       d="m 76.16095,875.2232 51.0176,-43.1567 18.23635,-81.0919 -0.57402,-25.49626 v -36.05472 l -14.9302,-14.93262 -21.124,10e-4 -14.9326,14.9297 v 21.12305 l 14.9302,14.93454 34.88803,-1.16958 0.26307,26.66489 -18.12258,80.5233 z"
       id="path873"
       inkscape:connector-curvature="0" />
    <path
       style="fill:#000000;fill-opacity:1;stroke:none;stroke-width:1px;stroke-linecap:butt;stroke-linejoin:miter;stroke-opacity:1"
       d="m 104.33044,386.17441 23.11525,4.9e-4 16.26468,-17.8003 0.04,-25.4248 -16.5801,-18.2246 -23.11525,-4.8e-4 -16.13965,18.17529 -0.01123,25.40186 z"
       id="path831"
       inkscape:connector-curvature="0" />
  </g>
  <g
     sodipodi:insensitive="true"
     inkscape:groupmode="layer"
     id="layer4"
     inkscape:label="structure"
     style="display:inline">
    <path
       sodipodi:nodetypes="cccccccccccccccccccccc"
       inkscape:connector-curvature="0"
       style="display:inline;opacity:0.5;fill:none;fill-opacity:1;stroke:#fc0000;stroke-width:18.89800072;stroke-linecap:square;stroke-linejoin:round;stroke-miterlimit:4;stroke-dasharray:none;stroke-opacity:1"
       d="m 104.05469,324.72461 -16.138674,18.17578 -0.01172,25.40234 16.425784,17.8711 23.11523,0.002 16.26563,-17.80078 0.0391,-25.42578 -16.58008,-18.22461 z m 4.73242,349.76562 -14.933594,14.93165 v 21.12304 l 14.931644,14.9336 h 11.13672 l 22.49218,25.49608 -18.00586,79.9395 -21.03906,21.3203 26.57813,-19.0156 18.46679,-82.2461 -3.57226,-61.54887 -14.93164,-14.9336 z"
       id="path869" />
  </g>
  <g
     inkscape:groupmode="layer"
     id="layer5"
     inkscape:label="optique"
     style="display:inline"
     sodipodi:insensitive="true">
    <path
       style="display:inline;opacity:0.5;fill:none;stroke:#fc0000;stroke-width:71.8110199;stroke-linecap:square;stroke-linejoin:round;stroke-miterlimit:4;stroke-dasharray:none;stroke-opacity:1"
       d="m 104.05469,324.72461 -16.138674,18.17578 -0.01172,25.40234 16.425784,17.8711 23.11523,0.002 16.26563,-17.80078 0.0391,-25.42578 -16.58008,-18.22461 z m 4.73047,349.76562 -14.931644,14.93165 v 21.12304 l 14.929684,14.9336 h 11.13868 l 22.49218,25.49418 -18.00586,79.9394 -21.03906,21.3203 26.57813,-19.0136 18.46679,-82.2461 -3.57422,-61.54887 -14.92968,-14.9336 z"
       id="path839"
       inkscape:connector-curvature="0"
       sodipodi:nodetypes="cccccccccccccccccccccc" />
  </g>
</svg>
