<?xml version="1.0" encoding="UTF-8" standalone="no"?>
<svg
   xmlns:dc="http://purl.org/dc/elements/1.1/"
   xmlns:cc="http://creativecommons.org/ns#"
   xmlns:rdf="http://www.w3.org/1999/02/22-rdf-syntax-ns#"
   xmlns:svg="http://www.w3.org/2000/svg"
   xmlns="http://www.w3.org/2000/svg"
   xmlns:sodipodi="http://sodipodi.sourceforge.net/DTD/sodipodi-0.dtd"
   xmlns:inkscape="http://www.inkscape.org/namespaces/inkscape"
   version="1.1"
   viewBox="0 -250 633 1000"
   id="svg6"
   sodipodi:docname="ampersand_ManifontGroteskBook-travail.svg"
   inkscape:version="1.0.1 (1.0.1+r73)">
  <metadata
     id="metadata12">
    <rdf:RDF>
      <cc:Work
         rdf:about="">
        <dc:format>image/svg+xml</dc:format>
        <dc:type
           rdf:resource="http://purl.org/dc/dcmitype/StillImage" />
        <dc:title />
      </cc:Work>
    </rdf:RDF>
  </metadata>
  <defs
     id="defs10" />
  <sodipodi:namedview
     pagecolor="#ffffff"
     bordercolor="#666666"
     borderopacity="1"
     objecttolerance="10"
     gridtolerance="10"
     guidetolerance="10"
     inkscape:pageopacity="0"
     inkscape:pageshadow="2"
     inkscape:window-width="1920"
     inkscape:window-height="1015"
     id="namedview8"
     showgrid="false"
     inkscape:snap-midpoints="true"
     inkscape:snap-object-midpoints="true"
     inkscape:snap-others="true"
     inkscape:snap-intersection-paths="true"
     inkscape:zoom="0.6675088"
     inkscape:cx="27.286866"
     inkscape:cy="723.46561"
     inkscape:window-x="0"
     inkscape:window-y="0"
     inkscape:window-maximized="1"
     inkscape:current-layer="layer4"
     inkscape:document-rotation="0" />
  <g
     inkscape:groupmode="layer"
     id="layer1"
     inkscape:label="Layer 1"
     sodipodi:insensitive="true"
     style="display:inline">
    <g
       transform="matrix(1,0,0,-1,0,750)"
       id="g4">
      <path
         style="fill:currentColor"
         inkscape:connector-curvature="0"
         d="m 440.896,58.8613 -79.8672,-61.3457 -103.738,-20.1143 -168.108,56.9824 -54.124,135.823 38.3779,113.464 90.4678,75.2803 -45.4766,52.625 -41.6104,142.202 59.29,142.201 139.724,46.5215 151.25,-59.7891 40.4502,-118.729 -37.6758,-111.074 -130.79,-106.966 v 0 l 131.992,-146.001 21.6328,69.8916 2.38086,77.1094 88.9287,-4.94336 -4.89941,-111.332 -44.0889,-100.766 71.9883,-79.9023 -65,-58 z m -190.834,0.1026 78.2764,15.0186 55.6084,45.9141 -163.01,178.02 -65.0352,-58.0029 -23.9727,-69.7061 34.9863,-82.0625 z m 93.383,422.1311 31.043,82.7188 -23.0693,65.2754 -75.7568,31.5947 -80.5938,-34.4023 -25.5469,-72.6738 18.1465,-74.6816 58.2002,-73.1152 v 0 z"
         id="path2" />
    </g>
  </g>
  <g
     inkscape:groupmode="layer"
     id="layer2"
     inkscape:label="Layer 2"
     style="display:inline">
    <path
       style="fill:none;stroke:#000000;stroke-width:1px;stroke-linecap:butt;stroke-linejoin:miter;stroke-opacity:1"
       d="m 275.8315,7.4995 -0.1696,81.8166"
       id="path842"
       inkscape:connector-curvature="0" />
    <path
       style="fill:none;stroke:#000000;stroke-width:1px;stroke-linecap:butt;stroke-linejoin:miter;stroke-opacity:1"
       d="M 351.4187,120.9108 427.0815,67.2886"
       id="path844"
       inkscape:connector-curvature="0" />
    <path
       style="fill:none;stroke:#000000;stroke-width:1px;stroke-linecap:butt;stroke-linejoin:miter;stroke-opacity:1"
       d="m 467.5317,186.0176 -93.0437,0.1686"
       id="path846"
       inkscape:connector-curvature="0" />
    <path
       style="fill:none;stroke:#000000;stroke-width:1px;stroke-linecap:butt;stroke-linejoin:miter;stroke-opacity:1"
       d="m 343.445,268.905 86.4109,28.1866"
       id="path848"
       inkscape:connector-curvature="0" />
    <path
       style="fill:none;stroke:#000000;stroke-width:1px;stroke-linecap:butt;stroke-linejoin:miter;stroke-opacity:1"
       d="M 195.0681,123.7184 136.1075,54.021"
       id="path850"
       inkscape:connector-curvature="0" />
    <path
       style="fill:none;stroke:#000000;stroke-width:1px;stroke-linecap:butt;stroke-linejoin:miter;stroke-opacity:1"
       d="m 76.8175,196.222 92.7037,0.1702"
       id="path852"
       inkscape:connector-curvature="0" />
    <path
       style="fill:none;stroke:#000000;stroke-width:1px;stroke-linecap:butt;stroke-linejoin:miter;stroke-opacity:1"
       d="M 187.6677,271.0738 118.4279,338.424"
       id="path854"
       inkscape:connector-curvature="0" />
    <path
       style="fill:none;stroke:#000000;stroke-width:1px;stroke-linecap:butt;stroke-linejoin:miter;stroke-opacity:1"
       d="m 163.9045,391.049 81.9634,-46.86"
       id="path856"
       inkscape:connector-curvature="0" />
    <path
       style="fill:none;stroke:#000000;stroke-width:1px;stroke-linecap:butt;stroke-linejoin:miter;stroke-opacity:1"
       d="m 220.9368,452.0834 78.1291,-48.0258"
       id="path858"
       inkscape:connector-curvature="0" />
    <path
       style="fill:none;stroke:#000000;stroke-width:1px;stroke-linecap:butt;stroke-linejoin:miter;stroke-opacity:1"
       d="m 163.9045,391.049 57.0323,61.0344"
       id="path860"
       inkscape:connector-curvature="0" />
    <path
       style="fill:none;stroke:#000000;stroke-width:1px;stroke-linecap:butt;stroke-linejoin:miter;stroke-opacity:1"
       d="m 245.8679,344.189 53.198,59.8686"
       id="path862"
       inkscape:connector-curvature="0" />
    <path
       style="fill:none;stroke:#000000;stroke-width:1px;stroke-linecap:butt;stroke-linejoin:miter;stroke-opacity:1"
       d="m 73.4367,466.3293 82.4649,43.757"
       id="path866"
       inkscape:connector-curvature="0" />
    <path
       style="fill:none;stroke:#000000;stroke-width:1px;stroke-linecap:butt;stroke-linejoin:miter;stroke-opacity:1"
       d="m 35.0588,579.7933 96.8701,-9e-4"
       id="path868"
       inkscape:connector-curvature="0" />
    <path
       style="fill:none;stroke:#000000;stroke-width:1px;stroke-linecap:butt;stroke-linejoin:miter;stroke-opacity:1"
       d="m 89.1828,715.6163 77.7324,-53.7614"
       id="path870"
       inkscape:connector-curvature="0" />
    <path
       style="fill:none;stroke:#000000;stroke-width:1px;stroke-linecap:butt;stroke-linejoin:miter;stroke-opacity:1"
       d="M 257.2908,772.5987 250.062,691.0361"
       id="path872"
       inkscape:connector-curvature="0" />
    <path
       style="fill:none;stroke:#000000;stroke-width:1px;stroke-linecap:butt;stroke-linejoin:miter;stroke-opacity:1"
       d="M 361.0288,752.4844 328.3384,676.0175"
       id="path874"
       inkscape:connector-curvature="0" />
    <path
       style="fill:none;stroke:#000000;stroke-width:1px;stroke-linecap:butt;stroke-linejoin:miter;stroke-opacity:1"
       d="M 440.896,691.1387 383.9468,630.1034"
       id="path876"
       inkscape:connector-curvature="0" />
    <path
       style="fill:none;stroke:#000000;stroke-width:1px;stroke-linecap:butt;stroke-linejoin:miter;stroke-opacity:1"
       d="M 495.01195,620.09896 431.0579,550.0586"
       id="path878"
       inkscape:connector-curvature="0" />
    <path
       style="fill:none;stroke:#000000;stroke-width:1px;stroke-linecap:butt;stroke-linejoin:miter;stroke-opacity:1"
       d="M 539.10085,519.33296 452.6907,480.167"
       id="path880"
       inkscape:connector-curvature="0" />
    <path
       style="fill:none;stroke:#000000;stroke-width:1px;stroke-linecap:butt;stroke-linejoin:miter;stroke-opacity:1"
       d="m 383.9468,630.1034 47.1111,-80.0448"
       id="path882"
       inkscape:connector-curvature="0" />
    <path
       style="fill:none;stroke:#000000;stroke-width:1px;stroke-linecap:butt;stroke-linejoin:miter;stroke-opacity:1"
       d="m 440.896,691.1387 54.11595,-71.03974"
       id="path884"
       inkscape:connector-curvature="0" />
    <circle
       style="opacity:0.5;vector-effect:none;fill:none;fill-opacity:1;stroke:#ff0000;stroke-width:11.9836;stroke-linecap:round;stroke-linejoin:round;stroke-miterlimit:4;stroke-dasharray:none;stroke-dashoffset:0;stroke-opacity:1;paint-order:stroke fill markers"
       id="path886"
       cx="467.95398"
       cy="655.61884"
       r="3" />
    <circle
       style="opacity:0.5;vector-effect:none;fill:none;fill-opacity:1;stroke:#ff0000;stroke-width:11.9836;stroke-linecap:round;stroke-linejoin:round;stroke-miterlimit:4;stroke-dasharray:none;stroke-dashoffset:0;stroke-opacity:1;paint-order:stroke fill markers"
       id="path886-7"
       cx="463.03491"
       cy="585.0788"
       r="3" />
    <circle
       style="opacity:0.5;vector-effect:none;fill:none;fill-opacity:1;stroke:#ff0000;stroke-width:11.9836;stroke-linecap:round;stroke-linejoin:round;stroke-miterlimit:4;stroke-dasharray:none;stroke-dashoffset:0;stroke-opacity:1;paint-order:stroke fill markers"
       id="path886-5"
       cx="495.89578"
       cy="499.74997"
       r="3" />
    <path
       style="fill:none;stroke:#000000;stroke-width:0.994745px;stroke-linecap:butt;stroke-linejoin:miter;stroke-opacity:1"
       d="m 453.97,438.73392 88.46139,4.91738"
       id="path936"
       inkscape:connector-curvature="0" />
    <path
       style="fill:none;stroke:#000000;stroke-width:1.00291px;stroke-linecap:butt;stroke-linejoin:miter;stroke-opacity:1"
       d="m 477.85846,731.58441 65.18925,-58.1689"
       id="path938"
       inkscape:connector-curvature="0" />
    <path
       style="fill:none;stroke:#000000;stroke-width:1px;stroke-linecap:butt;stroke-linejoin:miter;stroke-opacity:1"
       d="m 163.9045,391.049 135.1614,13.0086"
       id="path863" />
    <path
       style="fill:none;stroke:#000000;stroke-width:1px;stroke-linecap:butt;stroke-linejoin:miter;stroke-opacity:1"
       d="M 245.8679,344.189 220.9368,452.0834"
       id="path865" />
    <circle
       style="opacity:0.5;fill:#000000;stroke-width:17.3163;stroke-linecap:square;stroke-linejoin:round;stroke-opacity:0.5;paint-order:stroke markers fill"
       id="path867"
       cx="233.4924"
       cy="397.74649"
       r="3" />
  </g>
  <g
     inkscape:groupmode="layer"
     id="layer3"
     inkscape:label="pathmin"
     style="display:inline"
     sodipodi:insensitive="true">
    <path
       style="opacity:0.5;fill:none;stroke:#ff0000;stroke-width:18.8976;stroke-linecap:round;stroke-linejoin:round;stroke-miterlimit:4;stroke-dasharray:none;stroke-opacity:1"
       d="m 510.45308,702.49996 -40.68119,-49.26757 -4.71412,-65.93825 33.57039,-86.30569 -0.42747,-59.79584 -5.03729,57.3189 -32.15132,84.35192 -53.50973,7.21757 -147.501,-162.0105 12.46555,-53.9472 114.18355,-91.125 34.3594,-96.8964 L 389.2501,94.0997 275.7467,48.4078 165.5878,88.8697 l -42.41845,107.4374 29.87845,108.4418 51.8384,62.8701 -12.46555,53.9472 -77.7515,66.6416 -31.1753,91.58505 44.55515,108.94275 125.6274,43.0818 91.0072,-17.56645 67.7378,-53.6299 53.71465,-2.61578 z"
       id="path918"
       inkscape:connector-curvature="0"
       sodipodi:nodetypes="ccccccccccccccccccccccccccc" />
  </g>
  <g
     inkscape:groupmode="layer"
     id="layer4"
     inkscape:label="pathmax">
    <path
       style="opacity:0.5;fill:none;stroke:#ff0000;stroke-width:71.811;stroke-linecap:round;stroke-linejoin:round;stroke-miterlimit:4;stroke-dasharray:none;stroke-opacity:1"
       d="m 510.45308,702.49996 -59.78206,-73.23729 14.38675,-41.96853 33.57039,-86.30569 -0.42747,-59.79584 -5.03729,57.3189 -38.8928,102.70374 -31.41265,5.71946 L 236.4924,397.74649 v 0 L 386.65045,282.9983 421.00985,186.1019 389.2501,94.099702 275.7467,48.407802 165.5878,88.869702 123.16935,196.3071 l 29.87845,108.4418 77.45843,92.71018 v 0 l -115.83708,90.74872 -31.1753,91.58505 44.55515,108.94275 125.6274,43.0818 91.0072,-17.56645 95.07826,-74.60341 26.37419,18.35773 z"
       id="path918-3"
       inkscape:connector-curvature="0"
       sodipodi:nodetypes="ccccccccccccccccccccccccccc" />
  </g>
</svg>
