<?xml version="1.0" encoding="UTF-8" standalone="no"?>
<svg
   xmlns:dc="http://purl.org/dc/elements/1.1/"
   xmlns:cc="http://creativecommons.org/ns#"
   xmlns:rdf="http://www.w3.org/1999/02/22-rdf-syntax-ns#"
   xmlns:svg="http://www.w3.org/2000/svg"
   xmlns="http://www.w3.org/2000/svg"
   xmlns:sodipodi="http://sodipodi.sourceforge.net/DTD/sodipodi-0.dtd"
   xmlns:inkscape="http://www.inkscape.org/namespaces/inkscape"
   version="1.1"
   viewBox="0 -250 1000 1000"
   id="svg6"
   sodipodi:docname="percent_ManifontGroteskBook.svg"
   inkscape:version="0.92.3 (2405546, 2018-03-11)">
  <metadata
     id="metadata12">
    <rdf:RDF>
      <cc:Work
         rdf:about="">
        <dc:format>image/svg+xml</dc:format>
        <dc:type
           rdf:resource="http://purl.org/dc/dcmitype/StillImage" />
      </cc:Work>
    </rdf:RDF>
  </metadata>
  <defs
     id="defs10" />
  <sodipodi:namedview
     pagecolor="#ffffff"
     bordercolor="#666666"
     borderopacity="1"
     objecttolerance="10"
     gridtolerance="10"
     guidetolerance="10"
     inkscape:pageopacity="0"
     inkscape:pageshadow="2"
     inkscape:window-width="1920"
     inkscape:window-height="1015"
     id="namedview8"
     showgrid="false"
     inkscape:snap-midpoints="true"
     inkscape:snap-object-midpoints="true"
     inkscape:snap-intersection-paths="true"
     inkscape:snap-smooth-nodes="true"
     inkscape:zoom="0.6675088"
     inkscape:cx="427.92573"
     inkscape:cy="388.09882"
     inkscape:window-x="0"
     inkscape:window-y="0"
     inkscape:window-maximized="1"
     inkscape:current-layer="layer4" />
  <g
     inkscape:groupmode="layer"
     id="layer1"
     inkscape:label="Layer 1"
     sodipodi:insensitive="true">
    <g
       transform="matrix(1,0,0,-1,0,750)"
       id="g4">
      <path
         style="fill:currentColor"
         inkscape:connector-curvature="0"
         d="m 310.001,725 105.279,-43.8916 40.8037,-121.12 -40.8037,-121.119 -105.279,-43.8916 -105.207,43.8916 -40.7939,121.119 40.7637,121.12 z m 0,-254.979 47.6523,21.0117 21.3867,69.04 -21.3867,69.0391 -47.6523,21.0127 -46.0781,-21.0127 -22.8789,-69.0391 21.3779,-69.04 z M 357,-8 289,28 662,728.091 732,691.0002 Z M 710.063,325.021 815.301,281.1284 856.0637,160.0094 815.301,38.8904 710.063,-5.0022 604.826,38.8904 l -40.7627,121.119 40.7314,121.119 z m 0,-255.064 47.5801,21.0117 21.376,69.04 -21.376,69.04 -47.5801,21.0117 -46.0684,-21.0117 -22.8047,-69.04 21.3047,-69.04 z"
         id="path2" />
    </g>
  </g>
  <g
     inkscape:groupmode="layer"
     id="layer2"
     inkscape:label="Layer 2"
     sodipodi:insensitive="true"
     style="display:none">
    <path
       style="fill:none;stroke:#000000;stroke-width:1px;stroke-linecap:butt;stroke-linejoin:miter;stroke-opacity:1"
       d="m 475.5,371.9545 69,36.5454"
       id="path842"
       inkscape:connector-curvature="0" />
    <circle
       style="opacity:0.5;vector-effect:none;fill:#ff0000;fill-opacity:1;stroke:#ff0000;stroke-width:4.67514515;stroke-linecap:round;stroke-linejoin:round;stroke-miterlimit:4;stroke-dasharray:none;stroke-dashoffset:0;stroke-opacity:1;paint-order:stroke markers fill"
       id="path844"
       cx="510"
       cy="390.2272"
       r="3" />
  </g>
  <g
     inkscape:groupmode="layer"
     id="layer3"
     inkscape:label="pathmin"
     style="display:inline"
     sodipodi:insensitive="true">
    <path
       inkscape:connector-curvature="0"
       style="display:inline;opacity:0.5;fill:none;stroke:#e01616;stroke-width:18.89763832;stroke-linecap:round;stroke-linejoin:round;stroke-miterlimit:4;stroke-dasharray:none;stroke-opacity:1"
       d="m 307.78643,66.973472 -75.66211,32.45312 -31.85743,95.078128 31.07422,95.08008 76.44532,32.45117 76.42969,-32.45117 31.08985,-95.08008 -31.08985,-95.078128 z M 678.22784,76.633632 507.34893,388.82308 341.80206,703.76449 512.61261,391.70394 Z m 29.62109,390.361318 -75.6621,32.45313 -31.85743,95.07812 31.07617,95.08007 76.44336,32.45118 76.42968,-32.45118 31.09181,-95.08007 -31.09181,-95.07812 z"
       id="path869"
       sodipodi:nodetypes="ccccccccccccccccccccccc" />
  </g>
  <g
     inkscape:groupmode="layer"
     id="layer4"
     inkscape:label="pathmax"
     sodipodi:insensitive="true">
    <path
       style="opacity:0.5;fill:none;stroke:#e01616;stroke-width:71.8110199;stroke-linecap:round;stroke-linejoin:round;stroke-miterlimit:4;stroke-dasharray:none;stroke-opacity:1"
       d="m 309.99967,62.412516 -75.66211,32.45312 -31.85743,95.078114 31.07422,95.08008 76.44532,32.45117 76.42969,-32.45117 31.08985,-95.08008 -31.08985,-95.078114 z M 680.44108,72.072676 509.56217,384.26211 344.0153,699.20352 514.82585,387.14297 Z m 29.62109,390.361304 -75.6621,32.45313 -31.85743,95.07812 31.07617,95.08008 76.44336,32.45117 76.42969,-32.45117 31.0918,-95.08008 -31.0918,-95.07812 z"
       id="path869-7"
       inkscape:connector-curvature="0"
       sodipodi:nodetypes="ccccccccccccccccccccccc" />
  </g>
</svg>
