<?xml version="1.0" encoding="UTF-8" standalone="no"?>
<svg
   xmlns:dc="http://purl.org/dc/elements/1.1/"
   xmlns:cc="http://creativecommons.org/ns#"
   xmlns:rdf="http://www.w3.org/1999/02/22-rdf-syntax-ns#"
   xmlns:svg="http://www.w3.org/2000/svg"
   xmlns="http://www.w3.org/2000/svg"
   xmlns:sodipodi="http://sodipodi.sourceforge.net/DTD/sodipodi-0.dtd"
   xmlns:inkscape="http://www.inkscape.org/namespaces/inkscape"
   version="1.1"
   viewBox="0 -250 1112 1000"
   id="svg6"
   sodipodi:docname="perthousand-MNF_Path.svg"
   inkscape:version="0.92.5 (2060ec1f9f, 2020-04-08)">
  <metadata
     id="metadata12">
    <rdf:RDF>
      <cc:Work
         rdf:about="">
        <dc:format>image/svg+xml</dc:format>
        <dc:type
           rdf:resource="http://purl.org/dc/dcmitype/StillImage" />
        <dc:title />
      </cc:Work>
    </rdf:RDF>
  </metadata>
  <defs
     id="defs10" />
  <sodipodi:namedview
     pagecolor="#ffffff"
     bordercolor="#666666"
     borderopacity="1"
     objecttolerance="10"
     gridtolerance="10"
     guidetolerance="10"
     inkscape:pageopacity="0"
     inkscape:pageshadow="2"
     inkscape:window-width="1920"
     inkscape:window-height="1016"
     id="namedview8"
     showgrid="false"
     inkscape:snap-midpoints="true"
     inkscape:snap-object-midpoints="true"
     inkscape:snap-intersection-paths="true"
     inkscape:zoom="0.6675088"
     inkscape:cx="59.722953"
     inkscape:cy="235.9113"
     inkscape:window-x="0"
     inkscape:window-y="0"
     inkscape:window-maximized="1"
     inkscape:current-layer="layer1" />
  <g
     inkscape:groupmode="layer"
     id="layer1"
     inkscape:label="base"
     sodipodi:insensitive="true"
     style="display:inline">
    <g
       transform="matrix(1,0,0,-1,0,750)"
       id="g4">
      <path
         style="fill:currentColor"
         inkscape:connector-curvature="0"
         d="m 186.084,725 105.248,-43.8916 40.8359,-121.12 -40.8359,-121.119 -105.248,-43.8916 -105.279,43.8916 -40.8047,121.119 40.8359,121.12 z m 0,-254.979 47.6104,21.0117 21.3457,69.04 -21.3457,69.0391 -47.6104,21.0127 -46.0781,-21.0127 -22.8779,-69.0391 21.3457,-69.04 z M 237.113,0 l -68.1133,38 370,690.091 69,-37.0908 z M 586.147,325.021 691.353,281.1284 732.1469,160.0094 691.353,38.8904 586.147,-5.0022 l -105.27,43.8926 -40.7314,121.119 40.7314,121.119 z m 0,-255.064 47.5381,21.0117 21.334,69.04 -21.334,69.04 -47.5381,21.0117 -46.1104,-21.0117 -22.8467,-69.04 21.3457,-69.04 z M 926.092,325.021 1031.34,281.1284 1072.1759,160.0094 1031.34,38.8904 926.092,-5.0022 820.897,38.8904 l -40.7217,121.119 40.7217,121.119 z m 0,-255.064 47.6113,21.0117 21.3457,69.04 -21.3457,69.04 -47.6113,21.0117 -46.0781,-21.0117 -22.8779,-69.04 21.3457,-69.04 z"
         id="path2" />
    </g>
  </g>
  <g
     inkscape:groupmode="layer"
     id="layer2"
     inkscape:label="skeleton"
     style="display:none"
     sodipodi:insensitive="true">
    <path
       style="fill:none;stroke:#000000;stroke-width:1px;stroke-linecap:butt;stroke-linejoin:miter;stroke-opacity:1"
       d="M 186.084,25 V 99.8755"
       id="path842"
       inkscape:connector-curvature="0" />
    <path
       style="fill:none;stroke:#000000;stroke-width:1px;stroke-linecap:butt;stroke-linejoin:miter;stroke-opacity:1"
       d="M 233.6944,120.8882 291.332,68.8916"
       id="path844"
       inkscape:connector-curvature="0" />
    <path
       style="fill:none;stroke:#000000;stroke-width:1px;stroke-linecap:butt;stroke-linejoin:miter;stroke-opacity:1"
       d="m 255.0401,189.9273 77.1278,0.0843"
       id="path846"
       inkscape:connector-curvature="0" />
    <path
       style="fill:none;stroke:#000000;stroke-width:1px;stroke-linecap:butt;stroke-linejoin:miter;stroke-opacity:1"
       d="m 233.6944,258.9673 57.6376,52.1633"
       id="path848"
       inkscape:connector-curvature="0" />
    <path
       style="fill:none;stroke:#000000;stroke-width:1px;stroke-linecap:butt;stroke-linejoin:miter;stroke-opacity:1"
       d="m 186.084,279.979 v 75.0432"
       id="path850"
       inkscape:connector-curvature="0" />
    <path
       style="fill:none;stroke:#000000;stroke-width:1px;stroke-linecap:butt;stroke-linejoin:miter;stroke-opacity:1"
       d="m 80.805,311.1306 57.6687,-52.1633"
       id="path852"
       inkscape:connector-curvature="0" />
    <path
       style="fill:none;stroke:#000000;stroke-width:1px;stroke-linecap:butt;stroke-linejoin:miter;stroke-opacity:1"
       d="m 40.0003,190.0116 77.1277,-0.0843"
       id="path854"
       inkscape:connector-curvature="0" />
    <path
       style="fill:none;stroke:#000000;stroke-width:1px;stroke-linecap:butt;stroke-linejoin:miter;stroke-opacity:1"
       d="M 140.0059,120.8882 80.8362,68.8916"
       id="path856"
       inkscape:connector-curvature="0" />
    <path
       style="fill:none;stroke:#000000;stroke-width:1px;stroke-linecap:butt;stroke-linejoin:miter;stroke-opacity:1"
       d="m 353.9997,366.9545 68.55665,37.5454"
       id="path858"
       inkscape:connector-curvature="0" />
    <circle
       style="opacity:0.5;vector-effect:none;fill:none;fill-opacity:1;stroke:#ff0000;stroke-width:13.07304192;stroke-linecap:round;stroke-linejoin:round;stroke-miterlimit:4;stroke-dasharray:none;stroke-dashoffset:0;stroke-opacity:1;paint-order:stroke fill markers"
       id="path866"
       cx="388.27802"
       cy="385.7272"
       r="3" />
    <path
       style="fill:none;stroke:#000000;stroke-width:1px;stroke-linecap:butt;stroke-linejoin:miter;stroke-opacity:1"
       d="M 586.147,499.9396 V 424.979"
       id="path888"
       inkscape:connector-curvature="0" />
    <path
       style="fill:none;stroke:#000000;stroke-width:1px;stroke-linecap:butt;stroke-linejoin:miter;stroke-opacity:1"
       d="M 926.092,499.9396 V 424.979"
       id="path890"
       inkscape:connector-curvature="0" />
    <path
       style="fill:none;stroke:#000000;stroke-width:1.00020742px;stroke-linecap:butt;stroke-linejoin:miter;stroke-opacity:1"
       d="m 186.03639,680.22468 68.12743,38.00788"
       id="path932"
       inkscape:connector-curvature="0" />
    <path
       style="fill:none;stroke:#000000;stroke-width:0.99979436px;stroke-linecap:butt;stroke-linejoin:miter;stroke-opacity:1"
       d="M 522.03176,53.556086 591.01757,90.63926"
       id="path934"
       inkscape:connector-curvature="0" />
  </g>
  <g
     inkscape:groupmode="layer"
     id="layer3"
     inkscape:label="structure"
     style="display:inline"
     sodipodi:insensitive="true">
    <path
       style="opacity:0.5;fill:none;stroke:#e01616;stroke-width:18.89763832;stroke-linecap:round;stroke-linejoin:round;stroke-miterlimit:4;stroke-dasharray:none;stroke-opacity:1"
       d="M 78.56415,189.96945 110.42105,94.8899 186.084,62.43775 262.5132,94.8899 293.604,189.96945 262.5132,285.04895 186.084,317.5006 109.63935,285.04895 Z"
       id="path869"
       inkscape:connector-curvature="0" />
    <path
       style="opacity:0.5;fill:none;stroke:#e01616;stroke-width:18.89763832;stroke-linecap:round;stroke-linejoin:round;stroke-miterlimit:4;stroke-dasharray:none;stroke-opacity:1"
       d="M 556.52466,72.097673 390.90924,387.1682 220.10011,699.22862 385.6468,384.2862 Z"
       id="path871"
       inkscape:connector-curvature="0"
       sodipodi:nodetypes="ccccc" />
    <path
       style="opacity:0.5;fill:none;stroke:#e01616;stroke-width:18.89763832;stroke-linecap:round;stroke-linejoin:round;stroke-miterlimit:4;stroke-dasharray:none;stroke-opacity:1"
       d="m 478.62715,589.991 31.8569,-95.07955 75.66295,-32.45215 76.4292,32.45215 31.0908,95.07955 -31.0908,95.0795 -76.4292,32.45165 -76.44465,-32.45165 z"
       id="path869-3"
       inkscape:connector-curvature="0" />
    <path
       style="opacity:0.5;fill:none;stroke:#e01616;stroke-width:18.89763832;stroke-linecap:round;stroke-linejoin:round;stroke-miterlimit:4;stroke-dasharray:none;stroke-opacity:1"
       d="m 818.57215,589.991 31.8569,-95.07955 75.66295,-32.45215 76.4292,32.45215 31.0908,95.07955 -31.0908,95.0795 -76.4292,32.45165 -76.44465,-32.45165 z"
       id="path869-3-6"
       inkscape:connector-curvature="0" />
  </g>
  <g
     inkscape:groupmode="layer"
     id="layer4"
     inkscape:label="optique"
     sodipodi:insensitive="true">
    <path
       style="opacity:0.5;fill:none;stroke:#e01616;stroke-width:71.8110199;stroke-linecap:round;stroke-linejoin:round;stroke-miterlimit:4;stroke-dasharray:none;stroke-opacity:1"
       d="m 78.56415,189.96945 31.8569,-95.079552 75.66295,-32.45215 76.4292,32.45215 31.0908,95.079552 -31.0908,95.0795 -76.4292,32.45165 -76.44465,-32.45165 z"
       id="path869-7"
       inkscape:connector-curvature="0" />
    <path
       style="opacity:0.5;fill:none;stroke:#e01616;stroke-width:71.8110199;stroke-linecap:round;stroke-linejoin:round;stroke-miterlimit:4;stroke-dasharray:none;stroke-opacity:1"
       d="M 556.52466,72.097673 390.90924,387.1682 220.10011,699.22862 385.6468,384.2862 Z"
       id="path871-5"
       inkscape:connector-curvature="0"
       sodipodi:nodetypes="ccccc" />
    <path
       style="opacity:0.5;fill:none;stroke:#e01616;stroke-width:71.8110199;stroke-linecap:round;stroke-linejoin:round;stroke-miterlimit:4;stroke-dasharray:none;stroke-opacity:1"
       d="m 478.62715,589.991 31.8569,-95.07955 75.66295,-32.45215 76.4292,32.45215 31.0908,95.07955 -31.0908,95.0795 -76.4292,32.45165 -76.44465,-32.45165 z"
       id="path869-3-3"
       inkscape:connector-curvature="0" />
    <path
       style="opacity:0.5;fill:none;stroke:#e01616;stroke-width:71.8110199;stroke-linecap:round;stroke-linejoin:round;stroke-miterlimit:4;stroke-dasharray:none;stroke-opacity:1"
       d="m 818.57215,589.991 31.8569,-95.07955 75.66295,-32.45215 76.4292,32.45215 31.0908,95.07955 -31.0908,95.0795 -76.4292,32.45165 -76.44465,-32.45165 z"
       id="path869-3-6-5"
       inkscape:connector-curvature="0" />
  </g>
</svg>
