<?xml version="1.0" encoding="UTF-8" standalone="no"?>
<svg
   xmlns:dc="http://purl.org/dc/elements/1.1/"
   xmlns:cc="http://creativecommons.org/ns#"
   xmlns:rdf="http://www.w3.org/1999/02/22-rdf-syntax-ns#"
   xmlns:svg="http://www.w3.org/2000/svg"
   xmlns="http://www.w3.org/2000/svg"
   xmlns:sodipodi="http://sodipodi.sourceforge.net/DTD/sodipodi-0.dtd"
   xmlns:inkscape="http://www.inkscape.org/namespaces/inkscape"
   version="1.1"
   viewBox="0 -250 524 1000"
   id="svg6"
   sodipodi:docname="ccedilla-MNF_Path.svg"
   inkscape:version="0.92.5 (2060ec1f9f, 2020-04-08)">
  <metadata
     id="metadata12">
    <rdf:RDF>
      <cc:Work
         rdf:about="">
        <dc:format>image/svg+xml</dc:format>
        <dc:type
           rdf:resource="http://purl.org/dc/dcmitype/StillImage" />
      </cc:Work>
    </rdf:RDF>
  </metadata>
  <defs
     id="defs10" />
  <sodipodi:namedview
     pagecolor="#ffffff"
     bordercolor="#666666"
     borderopacity="1"
     objecttolerance="10"
     gridtolerance="10"
     guidetolerance="10"
     inkscape:pageopacity="0"
     inkscape:pageshadow="2"
     inkscape:window-width="1920"
     inkscape:window-height="1016"
     id="namedview8"
     showgrid="false"
     inkscape:snap-object-midpoints="true"
     inkscape:snap-midpoints="true"
     inkscape:snap-intersection-paths="true"
     inkscape:zoom="0.35355339"
     inkscape:cx="8.3770139"
     inkscape:cy="352.43027"
     inkscape:window-x="0"
     inkscape:window-y="0"
     inkscape:window-maximized="1"
     inkscape:current-layer="layer2" />
  <g
     inkscape:groupmode="layer"
     id="layer1"
     inkscape:label="base"
     sodipodi:insensitive="true"
     style="display:inline">
    <g
       transform="matrix(1,0,0,-1,0,750)"
       id="g4">
      <path
         d="m 250.481,-38.96 h 11.3115 l 52.7617,-21.9346 19.7842,-61.668 -19.7842,-62.2217 -52.7617,-22.4873 -43.0674,13.9062 -20.7256,35.3652 35.2168,17.0664 10.874,-18.7529 17.7021,-5.69824 21.8682,9.94238 9.68457,32.8369 -9.61035,32.8809 -21.8584,9.98438 -17.6992,-6.29395 -10.876,-19.2637 -37.5918,14.2881 31.5527,76.459 -143.53,86.5713 -53.2725,189.838 66.2852,206.039 176.444,74.4521 142.298,-46.5557 65.5127,-108.794 -76.2402,-41.5391 -49.7432,91.9805 -81.8271,28.4482 -105.716,-47.7031 -45.2461,-156.328 45.2461,-156.286 105.716,-47.6611 81.7627,28.2793 49.8076,91.0439 76.2402,-41.2344 -65.5127,-108.545 -142.298,-46.0029 h -14.373 z"
         id="path2"
         inkscape:connector-curvature="0"
         style="fill:currentColor" />
    </g>
  </g>
  <g
     inkscape:groupmode="layer"
     id="layer2"
     inkscape:label="skeleton"
     sodipodi:insensitive="true"
     style="display:none">
    <path
       style="fill:none;stroke:#000000;stroke-width:1px;stroke-linecap:butt;stroke-linejoin:miter;stroke-opacity:1"
       d="m 415.48682,254.20623 -60.4707,58.3526"
       id="path857"
       inkscape:connector-curvature="0" />
    <path
       style="fill:none;stroke:#000000;stroke-width:1px;stroke-linecap:butt;stroke-linejoin:miter;stroke-opacity:1"
       d="m 273.18882,207.65053 2e-4,76.4601"
       id="path859"
       inkscape:connector-curvature="0" />
    <path
       style="fill:none;stroke:#000000;stroke-width:1px;stroke-linecap:butt;stroke-linejoin:miter;stroke-opacity:1"
       d="m 167.47302,331.81373 -70.7282,-49.7111"
       id="path861"
       inkscape:connector-curvature="0" />
    <path
       style="fill:none;stroke:#000000;stroke-width:1px;stroke-linecap:butt;stroke-linejoin:miter;stroke-opacity:1"
       d="m 30.45962,488.14163 91.7673,10e-5"
       id="path863"
       inkscape:connector-curvature="0" />
    <path
       style="fill:none;stroke:#000000;stroke-width:1px;stroke-linecap:butt;stroke-linejoin:miter;stroke-opacity:1"
       d="m 167.47302,644.42773 -83.7409,33.5519"
       id="path865"
       inkscape:connector-curvature="0" />
    <path
       style="fill:none;stroke:#000000;stroke-width:1px;stroke-linecap:butt;stroke-linejoin:miter;stroke-opacity:1"
       d="m 415.48682,722.54503 -60.5351,-58.7355"
       id="path867"
       inkscape:connector-curvature="0" />
    <path
       style="fill:none;stroke:#000000;stroke-width:1px;stroke-linecap:butt;stroke-linejoin:miter;stroke-opacity:1"
       d="m 273.18882,768.5479 2e-4,-76.45907"
       id="path869"
       inkscape:connector-curvature="0" />
    <path
       style="fill:none;stroke:#000000;stroke-width:1px;stroke-linecap:butt;stroke-linejoin:miter;stroke-opacity:1"
       d="m 258.81582,768.5479 -31.5537,-3.997"
       id="path871"
       inkscape:connector-curvature="0" />
    <path
       style="fill:none;stroke:#000000;stroke-width:1px;stroke-linecap:butt;stroke-linejoin:miter;stroke-opacity:1"
       d="m 250.481,788.96 -6.30378,47.0743"
       id="path873"
       inkscape:connector-curvature="0" />
    <path
       style="fill:none;stroke:#000000;stroke-width:1px;stroke-linecap:butt;stroke-linejoin:miter;stroke-opacity:1"
       d="M 261.87642,829.7404 261.7925,788.96"
       id="path875"
       inkscape:connector-curvature="0" />
    <path
       style="fill:none;stroke:#000000;stroke-width:1px;stroke-linecap:butt;stroke-linejoin:miter;stroke-opacity:1"
       d="M 283.73482,839.7248 314.5542,810.8946"
       id="path877"
       inkscape:connector-curvature="0" />
    <path
       style="fill:none;stroke:#000000;stroke-width:1px;stroke-linecap:butt;stroke-linejoin:miter;stroke-opacity:1"
       d="m 293.34517,872.6057 40.99323,-0.043"
       id="path879"
       inkscape:connector-curvature="0" />
    <path
       style="fill:none;stroke:#000000;stroke-width:1px;stroke-linecap:butt;stroke-linejoin:miter;stroke-opacity:1"
       d="m 283.6606,905.4426 30.8936,29.3417"
       id="path881"
       inkscape:connector-curvature="0" />
    <path
       style="fill:none;stroke:#000000;stroke-width:1px;stroke-linecap:butt;stroke-linejoin:miter;stroke-opacity:1"
       d="m 261.7925,957.2716 -1e-4,-41.8867"
       id="path883"
       inkscape:connector-curvature="0" />
    <path
       style="fill:none;stroke:#000000;stroke-width:1px;stroke-linecap:butt;stroke-linejoin:miter;stroke-opacity:1"
       d="m 244.0903,909.6867 -25.3652,33.6787"
       id="path885"
       inkscape:connector-curvature="0" />
    <path
       style="fill:none;stroke:#000000;stroke-width:1.06725001px;stroke-linecap:butt;stroke-linejoin:miter;stroke-opacity:1"
       d="m 204.05727,820.78528 40.11995,15.24902"
       id="path887"
       inkscape:connector-curvature="0" />
    <circle
       style="opacity:0.5;fill:#000000;stroke-width:5.55294991;stroke-linecap:square;stroke-linejoin:round;stroke-opacity:0.5;paint-order:stroke markers fill"
       id="path889"
       cx="385.25146"
       cy="283.38254"
       r="3" />
    <circle
       style="opacity:0.5;fill:#000000;stroke-width:5.55294991;stroke-linecap:square;stroke-linejoin:round;stroke-opacity:0.5;paint-order:stroke markers fill"
       id="path889-3"
       cx="273.18893"
       cy="245.88058"
       r="3" />
    <circle
       style="opacity:0.5;fill:#000000;stroke-width:5.55294991;stroke-linecap:square;stroke-linejoin:round;stroke-opacity:0.5;paint-order:stroke markers fill"
       id="path889-6"
       cx="132.10892"
       cy="306.95819"
       r="3" />
    <circle
       style="opacity:0.5;fill:#000000;stroke-width:5.55294991;stroke-linecap:square;stroke-linejoin:round;stroke-opacity:0.5;paint-order:stroke markers fill"
       id="path889-7"
       cx="76.343269"
       cy="488.14169"
       r="3" />
    <circle
       style="opacity:0.5;fill:#000000;stroke-width:5.55294991;stroke-linecap:square;stroke-linejoin:round;stroke-opacity:0.5;paint-order:stroke markers fill"
       id="path889-5"
       cx="125.60257"
       cy="661.20367"
       r="3" />
    <circle
       style="opacity:0.5;fill:#000000;stroke-width:5.55294991;stroke-linecap:square;stroke-linejoin:round;stroke-opacity:0.5;paint-order:stroke markers fill"
       id="path889-35"
       cx="273.18893"
       cy="730.31836"
       r="3" />
    <circle
       style="opacity:0.5;fill:#000000;stroke-width:5.55294991;stroke-linecap:square;stroke-linejoin:round;stroke-opacity:0.5;paint-order:stroke markers fill"
       id="path889-62"
       cx="385.21927"
       cy="693.17731"
       r="3" />
    <circle
       style="opacity:0.5;fill:#000000;stroke-width:5.55294991;stroke-linecap:square;stroke-linejoin:round;stroke-opacity:0.5;paint-order:stroke markers fill"
       id="path889-9"
       cx="231.4077"
       cy="926.52606"
       r="3" />
    <circle
       style="opacity:0.5;fill:#000000;stroke-width:5.55294991;stroke-linecap:square;stroke-linejoin:round;stroke-opacity:0.5;paint-order:stroke markers fill"
       id="path889-9-1"
       cx="261.79245"
       cy="936.32825"
       r="3" />
    <circle
       style="opacity:0.5;fill:#000000;stroke-width:5.55294991;stroke-linecap:square;stroke-linejoin:round;stroke-opacity:0.5;paint-order:stroke markers fill"
       id="path889-9-2"
       cx="299.10739"
       cy="920.11346"
       r="3" />
    <circle
       style="opacity:0.5;fill:#000000;stroke-width:5.55294991;stroke-linecap:square;stroke-linejoin:round;stroke-opacity:0.5;paint-order:stroke markers fill"
       id="path889-9-7"
       cx="313.8418"
       cy="872.58423"
       r="3" />
    <circle
       style="opacity:0.5;fill:#000000;stroke-width:5.55294991;stroke-linecap:square;stroke-linejoin:round;stroke-opacity:0.5;paint-order:stroke markers fill"
       id="path889-9-0"
       cx="299.1445"
       cy="825.30969"
       r="3" />
    <circle
       style="opacity:0.5;fill:#000000;stroke-width:5.55294991;stroke-linecap:square;stroke-linejoin:round;stroke-opacity:0.5;paint-order:stroke markers fill"
       id="path889-9-9"
       cx="262.33588"
       cy="811.19159"
       r="3" />
    <path
       style="fill:none;stroke:#000000;stroke-width:1px;stroke-linecap:butt;stroke-linejoin:miter;stroke-opacity:1"
       d="m 227.26212,764.5509 45.9269,-72.46207"
       id="path984"
       inkscape:connector-curvature="0" />
    <circle
       style="opacity:0.5;fill:#000000;stroke-width:5.55294991;stroke-linecap:square;stroke-linejoin:round;stroke-opacity:0.5;paint-order:stroke markers fill"
       id="path889-9-9-3"
       cx="224.11725"
       cy="828.40979"
       r="3" />
    <path
       style="fill:none;stroke:#000000;stroke-width:0.71729898px;stroke-linecap:butt;stroke-linejoin:miter;stroke-opacity:1"
       d="M 250.481,788.96 221.70299,778.02191"
       id="path1001"
       inkscape:connector-curvature="0" />
    <circle
       style="opacity:0.5;fill:#000000;stroke-width:5.55294991;stroke-linecap:square;stroke-linejoin:round;stroke-opacity:0.5;paint-order:stroke markers fill"
       id="path889-35-6"
       cx="250.22557"
       cy="728.31989"
       r="3" />
    <circle
       style="opacity:0.5;fill:#000000;stroke-width:5.55294991;stroke-linecap:square;stroke-linejoin:round;stroke-opacity:0.5;paint-order:stroke markers fill"
       id="path889-35-6-0"
       cx="243.03897"
       cy="766.54938"
       r="3" />
    <circle
       style="opacity:0.5;fill:#000000;stroke-width:5.55294991;stroke-linecap:square;stroke-linejoin:round;stroke-opacity:0.5;paint-order:stroke markers fill"
       id="path889-35-6-6"
       cx="236.092"
       cy="783.49097"
       r="3" />
    <path
       style="fill:none;stroke:#000000;stroke-width:0.982355px;stroke-linecap:butt;stroke-linejoin:miter;stroke-opacity:1"
       d="m 387.47637,604.35733 74.89499,40.50685"
       id="path1056"
       inkscape:connector-curvature="0" />
    <path
       style="fill:none;stroke:#000000;stroke-width:0.980753px;stroke-linecap:butt;stroke-linejoin:miter;stroke-opacity:1"
       d="m 387.5872,372.78624 74.7729,-40.73965"
       id="path1058"
       inkscape:connector-curvature="0" />
  </g>
  <g
     inkscape:groupmode="layer"
     id="layer3"
     inkscape:label="structure"
     style="display:inline"
     sodipodi:insensitive="true">
    <path
       style="opacity:0.5;fill:none;stroke:#ff0000;stroke-width:18.89760017;stroke-linecap:square;stroke-linejoin:round;stroke-miterlimit:4;stroke-dasharray:none;stroke-opacity:1"
       d="m 424.97365,352.41642 -37.56344,-71.11702 -114.2213,-38.41882 -143.53438,62.35254 -56.311261,182.90856 49.474521,174.17776 125.80176,68.53435 -8.55675,35.31861 -6.77502,16.25271 -11.97475,44.91884 -6.80771,20.81003 12.41615,-18.67834 34.92287,-15.32465 35.10936,13.20812 13.88812,45.22824 -13.90965,45.46014 -35.13973,15.28076 -28.57995,-9.19852 -17.60459,-24.66273 13.995,29.45538 32.18956,10.40587 39.49018,-17.14883 15.55914,-49.59837 -15.50646,-49.32076 -39.50316,-15.02607 -14.50305,4.26293 -8.43289,-27.94035 7.11892,-17.6304 30.14994,-33.23104 111.20726,-38.42902 37.55152,-70.65558 -41.85763,66.47749 -109.8773,36.23011 -21.35736,-1.53239 L 128.38735,660.08792 79.343269,488.14168 134.56332,308.68325 273.18893,248.88058 383.09271,285.46567 Z"
       id="path982"
       sodipodi:nodetypes="cccccccccccccccccccccccccccccccccccccccc"
       inkscape:connector-curvature="0" />
  </g>
  <g
     inkscape:groupmode="layer"
     id="layer4"
     inkscape:label="optique"
     style="display:inline"
     sodipodi:insensitive="true">
    <path
       style="opacity:0.5;fill:none;stroke:#ff0000;stroke-width:71.811;stroke-linecap:square;stroke-linejoin:round;stroke-miterlimit:4;stroke-dasharray:none;stroke-opacity:1"
       d="m 424.97365,352.41642 -37.56346,-71.11701 -114.2213,-38.41882 -143.53438,62.35254 -56.31126,182.90856 49.47452,174.17776 125.80176,68.53435 -8.55675,35.31861 -6.77502,16.25271 -11.97475,44.91884 2.80424,1.06583 2.8042,1.06586 34.92287,-15.32465 35.10936,13.20812 13.88812,45.22824 -13.90965,45.46014 -35.13973,15.28076 -28.57995,-9.19852 -1.80477,2.39631 -1.80482,2.39634 32.18956,10.40587 39.49018,-17.14883 15.55914,-49.59837 -15.50646,-49.32076 -39.50316,-15.02607 -14.50305,4.26293 -8.43289,-27.94035 7.11892,-17.6304 30.14994,-33.23104 111.20726,-38.42902 37.55154,-70.65559 -41.85765,66.4775 -109.8773,36.23011 -21.35736,-1.53239 L 128.38733,660.08793 79.34325,488.14169 134.5633,308.68326 273.18891,248.88059 383.09269,285.46568 Z"
       id="path982-2"
       sodipodi:nodetypes="cccccccccccccccccccccccccccccccccccccccc" />
  </g>
</svg>
