<?xml version="1.0" encoding="UTF-8" standalone="no"?>
<svg
   xmlns:dc="http://purl.org/dc/elements/1.1/"
   xmlns:cc="http://creativecommons.org/ns#"
   xmlns:rdf="http://www.w3.org/1999/02/22-rdf-syntax-ns#"
   xmlns:svg="http://www.w3.org/2000/svg"
   xmlns="http://www.w3.org/2000/svg"
   xmlns:sodipodi="http://sodipodi.sourceforge.net/DTD/sodipodi-0.dtd"
   xmlns:inkscape="http://www.inkscape.org/namespaces/inkscape"
   version="1.1"
   viewBox="0 -250 538 1000"
   id="svg6"
   sodipodi:docname="uni0000_ManifontGroteskBook-travail.svg"
   inkscape:version="1.0.1 (1.0.1+r73)">
  <metadata
     id="metadata12">
    <rdf:RDF>
      <cc:Work
         rdf:about="">
        <dc:format>image/svg+xml</dc:format>
        <dc:type
           rdf:resource="http://purl.org/dc/dcmitype/StillImage" />
        <dc:title />
      </cc:Work>
    </rdf:RDF>
  </metadata>
  <defs
     id="defs10" />
  <sodipodi:namedview
     pagecolor="#ffffff"
     bordercolor="#666666"
     borderopacity="1"
     objecttolerance="10"
     gridtolerance="10"
     guidetolerance="10"
     inkscape:pageopacity="0"
     inkscape:pageshadow="2"
     inkscape:window-width="1920"
     inkscape:window-height="1015"
     id="namedview8"
     showgrid="false"
     inkscape:snap-intersection-paths="true"
     inkscape:snap-midpoints="true"
     inkscape:object-paths="false"
     inkscape:zoom="0.6675088"
     inkscape:cx="249.93664"
     inkscape:cy="528.44038"
     inkscape:window-x="0"
     inkscape:window-y="0"
     inkscape:window-maximized="1"
     inkscape:current-layer="layer4"
     inkscape:snap-smooth-nodes="false"
     inkscape:snap-center="false"
     inkscape:snap-object-midpoints="true"
     inkscape:snap-others="true"
     inkscape:document-rotation="0" />
  <g
     inkscape:groupmode="layer"
     id="layer1"
     inkscape:label="Layer 1"
     sodipodi:insensitive="true"
     style="display:inline">
    <g
       transform="matrix(1,0,0,-1,0,750)"
       id="g4">
      <path
         style="fill:currentColor"
         inkscape:connector-curvature="0"
         d="M 476,520 V 0 H 386 V 451 H 184 V 152 l 7.75391,-65.4639 43.3643,-21.9688 40.3027,6.03809 10.3809,-77.5635 -68.7998,-9.62793 -102.474,43.0264 -20.5283,125.56 v 299 h -74 v 69 h 74 v 180 h 90 v -180 h 292 z m -22.567,80 -45.3252,-0.24512 -32.207,35.0449 -0.22266,49.8076 31.8896,35.3926 45.3252,0.24512 32.207,-35.0449 0.22266,-49.8076 z"
         id="path2" />
    </g>
  </g>
  <g
     inkscape:groupmode="layer"
     id="layer2"
     inkscape:label="Layer 2"
     style="display:none"
     sodipodi:insensitive="true">
    <path
       style="fill:none;stroke:#000000;stroke-width:1px;stroke-linecap:butt;stroke-linejoin:miter;stroke-opacity:1"
       d="m 386,299 89.99971,-69.00036"
       id="path842"
       inkscape:connector-curvature="0" />
    <path
       style="fill:none;stroke:#000000;stroke-width:1px;stroke-linecap:butt;stroke-linejoin:miter;stroke-opacity:1"
       d="m 184,299 -2.9e-4,-69.00036 h -90 v 69 z"
       id="path844"
       inkscape:connector-curvature="0" />
    <path
       style="fill:none;stroke:#000000;stroke-width:1px;stroke-linecap:butt;stroke-linejoin:miter;stroke-opacity:1"
       d="m 235.11821,685.4327 -18.1162,81.1533"
       id="path846"
       inkscape:connector-curvature="0" />
    <path
       style="fill:none;stroke:#000000;stroke-width:1px;stroke-linecap:butt;stroke-linejoin:miter;stroke-opacity:1"
       d="m 114.52801,723.55964 77.2259,-60.09574"
       id="path848"
       inkscape:connector-curvature="0" />
    <path
       style="fill:none;stroke:#000000;stroke-width:1px;stroke-linecap:butt;stroke-linejoin:miter;stroke-opacity:1"
       d="m 184,598 -90.00029,-3.6e-4"
       id="path850"
       inkscape:connector-curvature="0" />
    <path
       style="fill:none;stroke:#000000;stroke-width:1px;stroke-linecap:butt;stroke-linejoin:miter;stroke-opacity:1"
       d="M 485.3226,114.6074 430.50037,90.00001 485.09994,64.7998"
       id="path857"
       inkscape:connector-curvature="0" />
    <path
       style="fill:none;stroke:#000000;stroke-width:1px;stroke-linecap:butt;stroke-linejoin:miter;stroke-opacity:1"
       d="m 375.67814,65.39262 54.82223,24.60739 -54.59957,25.20021"
       id="path859"
       inkscape:connector-curvature="0" />
    <path
       style="fill:none;stroke:#000000;stroke-width:1px;stroke-linecap:butt;stroke-linejoin:miter;stroke-opacity:1"
       d="M 407.56774,30.00002 430.50037,90.00001 452.89294,29.7549"
       id="path861"
       inkscape:connector-curvature="0" />
    <path
       style="fill:none;stroke:#000000;stroke-width:1px;stroke-linecap:butt;stroke-linejoin:miter;stroke-opacity:1"
       d="M 453.433,150 430.50037,90.00001 408.1078,150.24512"
       id="path863"
       inkscape:connector-curvature="0" />
    <circle
       style="opacity:0.5;vector-effect:none;fill:none;fill-opacity:1;stroke:#ff0000;stroke-width:5.89474773;stroke-linecap:round;stroke-linejoin:round;stroke-miterlimit:4;stroke-dasharray:none;stroke-dashoffset:0;stroke-opacity:1;paint-order:stroke fill markers"
       id="path827"
       cx="138.99985"
       cy="298.99982"
       r="3" />
    <circle
       style="display:inline;opacity:0.5;vector-effect:none;fill:none;fill-opacity:1;stroke:#ff0000;stroke-width:5.89474773;stroke-linecap:round;stroke-linejoin:round;stroke-miterlimit:4;stroke-dasharray:none;stroke-dashoffset:0;stroke-opacity:1;paint-order:stroke fill markers"
       id="path827-3"
       cx="138.99971"
       cy="229.99963"
       r="3" />
    <circle
       style="display:inline;opacity:0.5;vector-effect:none;fill:none;fill-opacity:1;stroke:#ff0000;stroke-width:5.89474773;stroke-linecap:round;stroke-linejoin:round;stroke-miterlimit:4;stroke-dasharray:none;stroke-dashoffset:0;stroke-opacity:1;paint-order:stroke fill markers"
       id="path827-3-6"
       cx="93.99971"
       cy="264.49963"
       r="3" />
    <circle
       style="display:inline;opacity:0.5;vector-effect:none;fill:none;fill-opacity:1;stroke:#ff0000;stroke-width:5.89474773;stroke-linecap:round;stroke-linejoin:round;stroke-miterlimit:4;stroke-dasharray:none;stroke-dashoffset:0;stroke-opacity:1;paint-order:stroke fill markers"
       id="path827-3-6-7"
       cx="183.99985"
       cy="264.49982"
       r="3" />
    <circle
       style="display:inline;opacity:0.5;vector-effect:none;fill:none;fill-opacity:1;stroke:#ff0000;stroke-width:5.89474773;stroke-linecap:round;stroke-linejoin:round;stroke-miterlimit:4;stroke-dasharray:none;stroke-dashoffset:0;stroke-opacity:1;paint-order:stroke fill markers"
       id="path827-3-6-5"
       cx="138.99985"
       cy="597.99982"
       r="3" />
    <circle
       style="display:inline;opacity:0.5;vector-effect:none;fill:none;fill-opacity:1;stroke:#ff0000;stroke-width:5.89474773;stroke-linecap:round;stroke-linejoin:round;stroke-miterlimit:4;stroke-dasharray:none;stroke-dashoffset:0;stroke-opacity:1;paint-order:stroke fill markers"
       id="path827-3-6-3"
       cx="153.14096"
       cy="693.51178"
       r="3" />
    <circle
       style="display:inline;opacity:0.5;vector-effect:none;fill:none;fill-opacity:1;stroke:#ff0000;stroke-width:5.89474773;stroke-linecap:round;stroke-linejoin:round;stroke-miterlimit:4;stroke-dasharray:none;stroke-dashoffset:0;stroke-opacity:1;paint-order:stroke fill markers"
       id="path827-3-6-56"
       cx="226.0601"
       cy="726.00934"
       r="3" />
    <circle
       style="display:inline;opacity:0.5;vector-effect:none;fill:none;fill-opacity:1;stroke:#ff0000;stroke-width:5.89474773;stroke-linecap:round;stroke-linejoin:round;stroke-miterlimit:4;stroke-dasharray:none;stroke-dashoffset:0;stroke-opacity:1;paint-order:stroke fill markers"
       id="path827-3-6-2"
       cx="430.99985"
       cy="264.49982"
       r="3" />
    <path
       style="fill:none;stroke:#000000;stroke-width:1px;stroke-linecap:butt;stroke-linejoin:miter;stroke-opacity:1"
       d="M 93.99971,229.99964 184,299"
       id="path929"
       inkscape:connector-curvature="0" />
    <path
       style="fill:none;stroke:#000000;stroke-width:1px;stroke-linecap:butt;stroke-linejoin:miter;stroke-opacity:1"
       d="m 183.99971,229.99964 -90,69"
       id="path931"
       inkscape:connector-curvature="0" />
    <circle
       style="display:inline;opacity:0.5;vector-effect:none;fill:none;fill-opacity:1;stroke:#ff0000;stroke-width:5.89474773;stroke-linecap:round;stroke-linejoin:round;stroke-miterlimit:4;stroke-dasharray:none;stroke-dashoffset:0;stroke-opacity:1;paint-order:stroke fill markers"
       id="path827-3-1"
       cx="138.99966"
       cy="264.49966"
       r="3" />
  </g>
  <g
     inkscape:groupmode="layer"
     id="layer3"
     inkscape:label="Layer 3"
     sodipodi:insensitive="true"
     style="display:none">
    <path
       style="fill:#000000;fill-opacity:1;stroke:none;stroke-width:1px;stroke-linecap:butt;stroke-linejoin:miter;stroke-opacity:1"
       d="M 419.30408,120.12256 441.96668,120 l 15.9448,-17.69629 -0.11132,-24.90381 -16.10351,-17.52244 -22.6626,0.12255 -15.9448,17.69631 0.11133,24.90379 z"
       id="path865"
       inkscape:connector-curvature="0" />
    <path
       style="fill:#000000;fill-opacity:1;stroke:none;stroke-width:1px;stroke-linecap:butt;stroke-linejoin:miter;stroke-opacity:1"
       d="m 280.61136,718.17636 -54.55125,7.83299 -72.91915,-32.49758 -14.14111,-95.51195 v -299 L 93.99971,264.49964 h -74 l 74,-3.90642 45,-30.59358 v -180 l 1.62529,180 43.37485,34.50018 H 430.99986 L 431,750 l -4.19097,-482.28718 -242.80917,-1.42575 -43.7059,32.71276 v 299 l 13.54011,94.97257 72.63908,31.18668 z"
       id="path867"
       inkscape:connector-curvature="0" />
  </g>
  <g
     inkscape:groupmode="layer"
     id="layer4"
     inkscape:label="pathmin"
     style="display:inline"
     sodipodi:insensitive="true">
    <path
       id="path1758-5"
       style="display:inline;opacity:0.493;fill:none;stroke:#ff0000;stroke-width:18.8976;stroke-linecap:round;stroke-linejoin:round;stroke-miterlimit:4;stroke-dasharray:none;stroke-opacity:1"
       d="m 426.60588,100.40722 7.8297,1.6e-4 5.50926,-6.029415 0.0134,-8.61203 -5.61611,-6.17313 -7.82971,-1.7e-4 -5.46692,6.15644 -0.003,8.60425 z m -181.48181,622.27126 -18.41035,0.40295 -71.20519,-31.41206 -13.50868,-93.66954 V 298.99982 l 42.00002,-31.5 244.61921,-1.17472 2.38092,447.92278 2.38063,-451.57333 -249.38079,-1.17473 -42.00013,-31.50019 -3,-143.983037 -3,143.983047 -42,31.49999 -37.45339,3.00001 37.45339,2.99999 42.00014,31.50018 v 299 l 14.77353,97.35437 74.63312,33.58307 z" />
  </g>
  <g
     inkscape:groupmode="layer"
     id="layer5"
     inkscape:label="pathmax"
     sodipodi:insensitive="true"
     style="display:inline">
    <path
       id="path1758-5-3"
       style="display:inline;opacity:0.492;fill:none;stroke:#ff0000;stroke-width:71.811;stroke-linecap:round;stroke-linejoin:round;stroke-miterlimit:4;stroke-dasharray:none;stroke-opacity:1"
       d="m 425.04808,104.57011 10.96158,2.2e-4 7.71297,-8.441188 0.0188,-12.056842 -7.86256,-8.642382 -10.96159,-2.38e-4 -7.65369,8.619016 -0.004,12.04595 z m -179.92401,618.10837 -18.41035,0.40295 -71.20519,-31.41206 -13.50868,-93.66954 V 298.99982 l -0.61941,-32.67488 287.23864,1.6e-4 2.38092,447.92278 2.38063,-451.57333 -292.00018,-1.4e-4 v 0 L 138.99971,86.016593 136.61888,262.6744 v 0 l -80.07256,1.82524 80.07257,1.8253 -0.61904,32.67487 v 299 l 14.77353,97.35437 74.63312,33.58307 z" />
  </g>
</svg>
