<?xml version="1.0" encoding="UTF-8" standalone="no"?>
<svg
   xmlns:dc="http://purl.org/dc/elements/1.1/"
   xmlns:cc="http://creativecommons.org/ns#"
   xmlns:rdf="http://www.w3.org/1999/02/22-rdf-syntax-ns#"
   xmlns:svg="http://www.w3.org/2000/svg"
   xmlns="http://www.w3.org/2000/svg"
   xmlns:sodipodi="http://sodipodi.sourceforge.net/DTD/sodipodi-0.dtd"
   xmlns:inkscape="http://www.inkscape.org/namespaces/inkscape"
   version="1.1"
   viewBox="0 -250 607 1000"
   id="svg6"
   sodipodi:docname="uniFB01_ManifontGroteskBook-travail.svg"
   inkscape:version="1.0.1 (1.0.1+r73)">
  <metadata
     id="metadata12">
    <rdf:RDF>
      <cc:Work
         rdf:about="">
        <dc:format>image/svg+xml</dc:format>
        <dc:type
           rdf:resource="http://purl.org/dc/dcmitype/StillImage" />
        <dc:title />
      </cc:Work>
    </rdf:RDF>
  </metadata>
  <defs
     id="defs10" />
  <sodipodi:namedview
     pagecolor="#ffffff"
     bordercolor="#666666"
     borderopacity="1"
     objecttolerance="10"
     gridtolerance="10"
     guidetolerance="10"
     inkscape:pageopacity="0"
     inkscape:pageshadow="2"
     inkscape:window-width="1920"
     inkscape:window-height="1015"
     id="namedview8"
     showgrid="false"
     inkscape:snap-intersection-paths="true"
     inkscape:snap-midpoints="true"
     inkscape:object-paths="false"
     inkscape:zoom="0.6675088"
     inkscape:cx="183.82953"
     inkscape:cy="615.09245"
     inkscape:window-x="0"
     inkscape:window-y="0"
     inkscape:window-maximized="1"
     inkscape:current-layer="layer4"
     inkscape:snap-object-midpoints="true"
     inkscape:snap-others="true"
     inkscape:document-rotation="0" />
  <g
     inkscape:groupmode="layer"
     id="layer1"
     inkscape:label="Layer 1"
     sodipodi:insensitive="true"
     style="display:inline">
    <g
       transform="matrix(1,0,0,-1,0,750)"
       id="g4">
      <path
         style="fill:currentColor"
         inkscape:connector-curvature="0"
         d="M 164,0 V 451 H 86 v 69 h 78 v 25 l 36.8203,128.469 114.741,44.6416 81.4385,-15.1104 -12.0381,-74.7012 -58.1729,10.2061 -58.8115,-24.1113 -16.9775,-67.3936 v -27 h 291 v -520 h -90 v 451 h -201 v -451 h -87 z m 355.433,600 -45.3252,-0.24512 -32.207,35.0449 -0.22266,49.8076 31.8896,35.3926 45.3252,0.24512 32.207,-35.0449 0.22266,-49.8076 z"
         id="path2" />
    </g>
  </g>
  <g
     inkscape:groupmode="layer"
     id="layer2"
     inkscape:label="Layer 2"
     style="display:none"
     sodipodi:insensitive="true">
    <path
       style="fill:none;stroke:#000000;stroke-width:1px;stroke-linecap:butt;stroke-linejoin:miter;stroke-opacity:1"
       d="m 164,230 v 69 l 86.9998,-2e-4 v -69 z"
       id="path842"
       inkscape:connector-curvature="0" />
    <path
       style="fill:none;stroke:#000000;stroke-width:1px;stroke-linecap:butt;stroke-linejoin:miter;stroke-opacity:1"
       d="M 250.9998,202.9998 164,205"
       id="path844"
       inkscape:connector-curvature="0" />
    <path
       style="fill:none;stroke:#000000;stroke-width:1px;stroke-linecap:butt;stroke-linejoin:miter;stroke-opacity:1"
       d="M 267.9773,135.6062 200.8203,76.531"
       id="path846"
       inkscape:connector-curvature="0" />
    <path
       style="fill:none;stroke:#000000;stroke-width:1px;stroke-linecap:butt;stroke-linejoin:miter;stroke-opacity:1"
       d="M 326.7888,111.4949 315.5613,31.8894"
       id="path848"
       inkscape:connector-curvature="0" />
    <path
       style="fill:none;stroke:#000000;stroke-width:1px;stroke-linecap:butt;stroke-linejoin:miter;stroke-opacity:1"
       d="m 451.9998,298.9998 90,-69"
       id="path850"
       inkscape:connector-curvature="0" />
    <path
       style="fill:none;stroke:#000000;stroke-width:1px;stroke-linecap:butt;stroke-linejoin:miter;stroke-opacity:1"
       d="M 441.9008,115.20022 496.50037,90.00001 441.67814,65.39262"
       id="path856"
       inkscape:connector-curvature="0" />
    <path
       style="fill:none;stroke:#000000;stroke-width:1px;stroke-linecap:butt;stroke-linejoin:miter;stroke-opacity:1"
       d="M 551.3226,114.6074 496.50037,90.00001 551.09994,64.7998"
       id="path858"
       inkscape:connector-curvature="0" />
    <path
       style="fill:none;stroke:#000000;stroke-width:1px;stroke-linecap:butt;stroke-linejoin:miter;stroke-opacity:1"
       d="M 473.56774,30.00002 496.50037,90.00001 518.89294,29.7549"
       id="path860"
       inkscape:connector-curvature="0" />
    <path
       style="fill:none;stroke:#000000;stroke-width:1px;stroke-linecap:butt;stroke-linejoin:miter;stroke-opacity:1"
       d="M 474.1078,150.24512 496.50037,90.00001 519.433,150"
       id="path862"
       inkscape:connector-curvature="0" />
    <path
       style="fill:none;stroke:#000000;stroke-width:1px;stroke-linecap:butt;stroke-linejoin:miter;stroke-opacity:1"
       d="m 164,230 86.9998,68.9998"
       id="path827"
       inkscape:connector-curvature="0" />
    <path
       style="fill:none;stroke:#000000;stroke-width:1px;stroke-linecap:butt;stroke-linejoin:miter;stroke-opacity:1"
       d="m 164,299 86.9998,-69.0002"
       id="path829"
       inkscape:connector-curvature="0" />
    <circle
       style="opacity:0.5;vector-effect:none;fill:none;fill-opacity:1;stroke:#ff0000;stroke-width:6.66782951;stroke-linecap:round;stroke-linejoin:round;stroke-miterlimit:4;stroke-dasharray:none;stroke-dashoffset:0;stroke-opacity:1;paint-order:stroke fill markers"
       id="path831"
       cx="207.49989"
       cy="298.99991"
       r="3" />
    <circle
       style="display:inline;opacity:0.5;vector-effect:none;fill:none;fill-opacity:1;stroke:#ff0000;stroke-width:6.66782951;stroke-linecap:round;stroke-linejoin:round;stroke-miterlimit:4;stroke-dasharray:none;stroke-dashoffset:0;stroke-opacity:1;paint-order:stroke fill markers"
       id="path831-3"
       cx="164"
       cy="264.5"
       r="3" />
    <circle
       style="display:inline;opacity:0.5;vector-effect:none;fill:none;fill-opacity:1;stroke:#ff0000;stroke-width:6.66782951;stroke-linecap:round;stroke-linejoin:round;stroke-miterlimit:4;stroke-dasharray:none;stroke-dashoffset:0;stroke-opacity:1;paint-order:stroke fill markers"
       id="path831-6"
       cx="207.49989"
       cy="229.99989"
       r="3" />
    <circle
       style="display:inline;opacity:0.5;vector-effect:none;fill:none;fill-opacity:1;stroke:#ff0000;stroke-width:6.66782951;stroke-linecap:round;stroke-linejoin:round;stroke-miterlimit:4;stroke-dasharray:none;stroke-dashoffset:0;stroke-opacity:1;paint-order:stroke fill markers"
       id="path831-7"
       cx="207.49989"
       cy="203.99989"
       r="3" />
    <circle
       style="display:inline;opacity:0.5;vector-effect:none;fill:none;fill-opacity:1;stroke:#ff0000;stroke-width:6.66782951;stroke-linecap:round;stroke-linejoin:round;stroke-miterlimit:4;stroke-dasharray:none;stroke-dashoffset:0;stroke-opacity:1;paint-order:stroke fill markers"
       id="path831-5"
       cx="234.3988"
       cy="106.0686"
       r="3" />
    <circle
       style="display:inline;opacity:0.5;vector-effect:none;fill:none;fill-opacity:1;stroke:#ff0000;stroke-width:6.66782951;stroke-linecap:round;stroke-linejoin:round;stroke-miterlimit:4;stroke-dasharray:none;stroke-dashoffset:0;stroke-opacity:1;paint-order:stroke fill markers"
       id="path831-35"
       cx="321.17505"
       cy="71.692146"
       r="3" />
    <circle
       style="display:inline;opacity:0.5;vector-effect:none;fill:none;fill-opacity:1;stroke:#ff0000;stroke-width:6.66782951;stroke-linecap:round;stroke-linejoin:round;stroke-miterlimit:4;stroke-dasharray:none;stroke-dashoffset:0;stroke-opacity:1;paint-order:stroke fill markers"
       id="path831-62"
       cx="207.49989"
       cy="264.49991"
       r="3" />
    <circle
       style="display:inline;opacity:0.5;vector-effect:none;fill:none;fill-opacity:1;stroke:#ff0000;stroke-width:6.66782951;stroke-linecap:round;stroke-linejoin:round;stroke-miterlimit:4;stroke-dasharray:none;stroke-dashoffset:0;stroke-opacity:1;paint-order:stroke fill markers"
       id="path831-9"
       cx="250.9998"
       cy="264.49979"
       r="3" />
    <circle
       style="display:inline;opacity:0.5;vector-effect:none;fill:none;fill-opacity:1;stroke:#ff0000;stroke-width:6.66782951;stroke-linecap:round;stroke-linejoin:round;stroke-miterlimit:4;stroke-dasharray:none;stroke-dashoffset:0;stroke-opacity:1;paint-order:stroke fill markers"
       id="path831-1"
       cx="496.99979"
       cy="264.49979"
       r="3" />
  </g>
  <g
     inkscape:groupmode="layer"
     id="layer3"
     inkscape:label="Layer 3"
     style="display:none"
     sodipodi:insensitive="true">
    <path
       style="fill:#000000;fill-opacity:1;stroke:none;stroke-width:1px;stroke-linecap:butt;stroke-linejoin:miter;stroke-opacity:1"
       d="m 207.4998,749.9998 1e-4,-450.9999 L 164,264.5 H 86 l 78,-3.2576 43.4999,-31.2425 v -26 l 26.8989,-97.9313 86.77625,-34.37645 69.8057,12.65825 -69.46392,-10.23496 -84.72655,34.05684 -26.86355,95.77183 -0.19167,26.05578 41.26474,34.49991 h 246 v 485.5 l -2.62944,-483.4841 -243.37056,0.15734 -41.12162,32.32685 z"
       id="path865"
       inkscape:connector-curvature="0" />
    <path
       style="fill:#000000;fill-opacity:1;stroke:none;stroke-width:1px;stroke-linecap:butt;stroke-linejoin:miter;stroke-opacity:1"
       d="m 469.08925,77.69632 0.11133,24.90379 16.1035,17.52245 22.6626,-0.12256 15.9448,-17.69629 -0.11133,-24.90381 -16.1035,-17.52244 -22.6626,0.12255 z"
       id="path867"
       inkscape:connector-curvature="0" />
  </g>
  <g
     inkscape:groupmode="layer"
     id="layer4"
     inkscape:label="pathmin"
     style="display:inline">
    <path
       id="path1758-5"
       style="display:inline;opacity:0.493;fill:none;stroke:#ff0000;stroke-width:18.8976;stroke-linecap:round;stroke-linejoin:round;stroke-miterlimit:4;stroke-dasharray:none;stroke-opacity:1"
       d="m 492.60588,100.40722 7.8297,1.6e-4 5.50926,-6.029414 0.0134,-8.61203 -5.61611,-6.17313 -7.82971,-1.7e-4 -5.46692,6.15644 -0.003,8.60425 z M 207.4998,714.41974 204.49989,298.99991 164,267.5 l -42.24788,-3 42.24788,-3 40.49989,-31.50009 8.2e-4,-25.93106 27.6456,-99.98167 88.60978,-35.36558 35.26703,8.743205 -34.42911,-2.802115 -84.94271,33.38734 -26.15222,95.88092 8.1e-4,26.06894 40.49991,31.4999 248.38078,1.17475 -2.38078,451.7452 -2.38078,-448.09467 -243.61922,1.17472 -40.49991,31.5001 z" />
  </g>
  <g
     inkscape:groupmode="layer"
     id="layer5"
     inkscape:label="pathmax"
     sodipodi:insensitive="true">
    <path
       id="path1758-5-3"
       style="display:inline;opacity:0.493;fill:none;stroke:#ff0000;stroke-width:71.811;stroke-linecap:round;stroke-linejoin:round;stroke-miterlimit:4;stroke-dasharray:none;stroke-opacity:1"
       d="m 491.04808,104.5701 10.96158,2.3e-4 7.71297,-8.441176 0.0188,-12.056842 -7.86256,-8.642382 -10.96159,-2.38e-4 -7.65369,8.619016 -0.004,12.04595 z M 207.4998,714.41974 205.14944,266.36406 v 0 L 121.75212,264.5 l 83.39733,-1.86425 v 0 l -0.64874,-58.5669 27.6456,-99.98167 88.60978,-35.365582 35.26703,8.743207 -34.42911,-2.802117 -84.94271,33.387342 -26.15222,95.88092 -0.64874,58.7048 v 0 l 289.53024,0.0388 -2.38078,451.7452 -2.38078,-448.09467 -284.76867,0.039 v 0 z" />
  </g>
</svg>
