<?xml version="1.0" encoding="UTF-8" standalone="no"?>
<svg
   xmlns:dc="http://purl.org/dc/elements/1.1/"
   xmlns:cc="http://creativecommons.org/ns#"
   xmlns:rdf="http://www.w3.org/1999/02/22-rdf-syntax-ns#"
   xmlns:svg="http://www.w3.org/2000/svg"
   xmlns="http://www.w3.org/2000/svg"
   xmlns:sodipodi="http://sodipodi.sourceforge.net/DTD/sodipodi-0.dtd"
   xmlns:inkscape="http://www.inkscape.org/namespaces/inkscape"
   version="1.1"
   viewBox="0 -250 396 1000"
   id="svg6"
   sodipodi:docname="quotedblright-MNF_Path.svg"
   inkscape:version="0.92.5 (2060ec1f9f, 2020-04-08)">
  <metadata
     id="metadata12">
    <rdf:RDF>
      <cc:Work
         rdf:about="">
        <dc:format>image/svg+xml</dc:format>
        <dc:type
           rdf:resource="http://purl.org/dc/dcmitype/StillImage" />
      </cc:Work>
    </rdf:RDF>
  </metadata>
  <defs
     id="defs10" />
  <sodipodi:namedview
     pagecolor="#ffffff"
     bordercolor="#666666"
     borderopacity="1"
     objecttolerance="10"
     gridtolerance="10"
     guidetolerance="10"
     inkscape:pageopacity="0"
     inkscape:pageshadow="2"
     inkscape:window-width="1920"
     inkscape:window-height="1016"
     id="namedview8"
     showgrid="false"
     inkscape:snap-midpoints="true"
     inkscape:zoom="1.3350176"
     inkscape:cx="98.986497"
     inkscape:cy="544.12985"
     inkscape:window-x="0"
     inkscape:window-y="0"
     inkscape:window-maximized="1"
     inkscape:current-layer="layer3" />
  <g
     inkscape:groupmode="layer"
     id="layer1"
     inkscape:label="base"
     sodipodi:insensitive="true"
     style="display:inline">
    <g
       transform="matrix(1,0,0,-1,0,750.00005)"
       id="g4">
      <path
         style="fill:currentColor"
         inkscape:connector-curvature="0"
         d="m 103.45,722.7 v 0.002 h 42.248 l 29.8613,-29.8652 v -42.2461 -29.8633 l -20.7832,-90.4072 -59.7764,-52.3203 -27.4531,36.6719 42.4834,34.2754 15.6904,71.7783 v 0 H 103.446 l -29.8613,29.8691 v 42.2461 z m 152.962,-0.283 v 0.002 h 42.248 l 29.8613,-29.8652 v -42.2461 -29.8633 l -20.7822,-90.4072 -60.7393,-53.0371 -26.4912,37.3887 42.4834,34.2754 15.6904,71.7783 v 0 H 256.408 l -29.8613,29.8691 v 42.2461 z"
         id="path2" />
    </g>
  </g>
  <g
     inkscape:groupmode="layer"
     id="layer2"
     inkscape:label="skeleton"
     sodipodi:insensitive="true"
     style="display:none">
    <path
       style="fill:none;stroke:#000000;stroke-width:1px;stroke-linecap:butt;stroke-linejoin:miter;stroke-opacity:1"
       d="M 124.572,78.2863 145.698,27.29805"
       id="path846"
       inkscape:connector-curvature="0" />
  </g>
  <g
     inkscape:groupmode="layer"
     id="layer3"
     inkscape:label="structure"
     style="display:inline"
     sodipodi:insensitive="true">
    <path
       style="display:inline;opacity:0.5;fill:none;stroke:#fc0000;stroke-width:18.89763832;stroke-linecap:round;stroke-linejoin:round;stroke-miterlimit:4;stroke-dasharray:none;stroke-opacity:1"
       d="m 108.59399,230.53435 26.57812,-19.01367 18.4668,-82.24609 L 150.06469,67.72576 135.135,52.79217 h -21.12304 l -14.9336,14.93164 v 21.12304 l 14.92969,14.9336 h 11.13867 l 22.49219,25.49414 -18.00586,79.93945 z m 153.4043,-0.97265 26.57812,-19.01367 18.4668,-82.2461 L 303.46899,66.7531 288.5393,51.81951 H 267.41625 L 252.48266,66.75115 V 87.8742 l 14.92969,14.93359 h 11.13867 l 22.49219,25.49414 -18.00586,79.93946 z"
       id="path880"
       inkscape:connector-curvature="0" />
  </g>
  <g
     inkscape:groupmode="layer"
     id="layer4"
     inkscape:label="optique"
     style="display:inline"
     sodipodi:insensitive="true">
    <path
       style="display:inline;opacity:0.5;fill:none;stroke:#fc0000;stroke-width:71.8110199;stroke-linecap:round;stroke-linejoin:round;stroke-miterlimit:4;stroke-dasharray:none;stroke-opacity:1"
       d="m 108.594,230.53631 26.57812,-19.01563 18.4668,-82.24609 -3.57422,-61.54883 -14.92969,-14.93359 h -21.12304 l -14.9336,14.93164 v 21.12304 l 14.92969,14.9336 h 11.13867 l 22.49219,25.49414 -18.00586,79.93945 z m 153.40429,-0.97266 26.57812,-19.01562 18.4668,-82.24414 L 303.46899,66.7531 288.5393,51.82146 h -21.125 L 252.48266,66.75115 V 87.8742 l 14.92969,14.93359 h 11.13867 l 22.49219,25.4961 -18.00586,79.93945 z"
       id="path859-7-3"
       inkscape:connector-curvature="0" />
  </g>
</svg>
