<?xml version="1.0" encoding="UTF-8" standalone="no"?>
<svg
   xmlns:dc="http://purl.org/dc/elements/1.1/"
   xmlns:cc="http://creativecommons.org/ns#"
   xmlns:rdf="http://www.w3.org/1999/02/22-rdf-syntax-ns#"
   xmlns:svg="http://www.w3.org/2000/svg"
   xmlns="http://www.w3.org/2000/svg"
   xmlns:sodipodi="http://sodipodi.sourceforge.net/DTD/sodipodi-0.dtd"
   xmlns:inkscape="http://www.inkscape.org/namespaces/inkscape"
   version="1.1"
   viewBox="0 -250 396 1000"
   id="svg6"
   sodipodi:docname="quotedblbase_ManifontGroteskBook.svg"
   inkscape:version="0.92.3 (2405546, 2018-03-11)">
  <sodipodi:namedview
     pagecolor="#ffffff"
     bordercolor="#666666"
     borderopacity="1"
     objecttolerance="10"
     gridtolerance="10"
     guidetolerance="10"
     inkscape:pageopacity="0"
     inkscape:pageshadow="2"
     inkscape:window-width="1920"
     inkscape:window-height="1015"
     id="namedview8"
     showgrid="false"
     inkscape:snap-midpoints="true"
     inkscape:snap-intersection-paths="true"
     inkscape:zoom="5.3400704"
     inkscape:cx="235.06264"
     inkscape:cy="56.34116"
     inkscape:window-x="0"
     inkscape:window-y="0"
     inkscape:window-maximized="1"
     inkscape:current-layer="layer4" />
  <metadata
     id="metadata12">
    <rdf:RDF>
      <cc:Work
         rdf:about="">
        <dc:format>image/svg+xml</dc:format>
        <dc:type
           rdf:resource="http://purl.org/dc/dcmitype/StillImage" />
      </cc:Work>
    </rdf:RDF>
  </metadata>
  <defs
     id="defs10" />
  <g
     inkscape:groupmode="layer"
     id="layer1"
     inkscape:label="Layer 1"
     sodipodi:insensitive="true"
     style="display:none">
    <g
       transform="matrix(1,0,0,-1,0,750)"
       id="g4">
      <path
         style="fill:currentColor"
         inkscape:connector-curvature="0"
         d="M 277.162,-0.00195312 H 254.8866 L 225.0262,29.867147 v 42.2461 l 29.8652,29.861303 h 42.248 L 326.9998,72.109347 V -5.312e-5 l -20.7822,-90.40719988 -59.5518,-52.038097 -27.6777,36.3896 42.4834,34.275397 z M 126.996,-0.974609 h -22.2754 l -29.8604,29.8691 v 42.2461 l 29.8652,29.861299 h 42.248 l 29.8604,-29.865199 v -72.1094 l -20.7822,-90.4072 -59.5518,-52.038101 -27.6777,36.3896 42.4834,34.275401 z"
         id="path2" />
    </g>
  </g>
  <g
     inkscape:groupmode="layer"
     id="layer2"
     inkscape:label="Layer 2"
     sodipodi:insensitive="true"
     style="display:none">
    <path
       style="fill:none;stroke:#000000;stroke-width:1px;stroke-linecap:butt;stroke-linejoin:miter;stroke-opacity:1"
       d="m 125.847,699.98635 21.1264,-50.98824"
       id="path855"
       inkscape:connector-curvature="0" />
    <path
       style="fill:none;stroke:#000000;stroke-width:1px;stroke-linecap:butt;stroke-linejoin:miter;stroke-opacity:1"
       d="m 276.013,699.01373 21.1264,-50.98828"
       id="path860"
       inkscape:connector-curvature="0" />
  </g>
  <g
     inkscape:groupmode="layer"
     id="layer3"
     inkscape:label="structure"
     style="display:inline"
     sodipodi:insensitive="true">
    <path
       sodipodi:nodetypes="cccccccccccccccccccccccccc"
       inkscape:connector-curvature="0"
       style="display:inline;opacity:0.5;fill:none;stroke:#fc0000;stroke-width:18.89763832;stroke-linecap:round;stroke-linejoin:round;stroke-miterlimit:4;stroke-dasharray:none;stroke-opacity:1"
       d="m 265.45312,673.51953 -14.93359,14.93164 v 21.12305 l 14.92969,14.93359 h 11.13867 l 22.49219,25.49419 -18.00586,79.9394 -21.03906,21.3203 26.57812,-19.0137 18.4668,-82.246 -3.57422,-61.54888 -14.92969,-14.93359 z m -150.16601,0.97266 -14.93359,14.93164 v 21.12305 l 14.92968,14.93359 h 11.13868 l 22.49218,25.49413 -18.00586,79.9395 -21.03906,21.3203 26.57813,-19.0137 18.46679,-82.2461 -3.57422,-61.54882 -14.92968,-14.93359 z"
       id="path859" />
  </g>
  <g
     inkscape:groupmode="layer"
     id="layer4"
     inkscape:label="optique">
    <path
       style="display:inline;opacity:0.5;fill:none;stroke:#fc0000;stroke-width:71.8110199;stroke-linecap:round;stroke-linejoin:round;stroke-miterlimit:4;stroke-dasharray:none;stroke-opacity:1"
       d="m 265.45117,673.51953 -14.93164,14.93164 v 21.12305 l 14.92969,14.93359 h 11.13867 l 22.49219,25.49419 -18.00586,79.9414 -21.03906,21.3203 26.57812,-19.0157 18.4668,-82.246 -3.57422,-61.54888 -14.92969,-14.93359 z m -150.16601,0.97266 -14.93164,14.92969 v 21.12304 l 14.92968,14.93555 h 11.13868 l 22.49218,25.49413 -18.00586,79.9395 -21.03906,21.3203 26.57813,-19.0137 18.46679,-82.2461 -3.57422,-61.55077 -14.92968,-14.93164 z"
       id="path859-7"
       inkscape:connector-curvature="0"
       sodipodi:nodetypes="cccccccccccccccccccccccccc" />
  </g>
</svg>
